<svg xmlns="http://www.w3.org/2000/svg" viewBox="0 0 75.55 179.56"><path fill="none" stroke="#000" stroke-miterlimit="10" d="M39.94 111.34v20"/><path d="M62.45 4.1a10.38 10.38 0 01-1.26 2.29l-1.57-1.15a12.19 12.19 0 002-5.24l1.94.23v.08a17.74 17.74 0 01-.45 2h4.2V4.1h-2.22v2.67h2.69v1.84H65a6.49 6.49 0 01-.13 1.11 23.28 23.28 0 013.28 3.19l-1.22 1.89a25 25 0 00-2.47-3.08 9 9 0 01-3.35 4.63l-1.4-1.71a7.47 7.47 0 003.44-6h-3.4V6.77h3.47V4.1zM75.09 2v13.25h-2v-1h-2.88v1.2H68.3V2zm-4.88 10.3h2.93V3.85h-2.93zm-4.27 15.64c4.64-.38 6.64-1.41 6.64-3.39 0-1.33-1-2.12-2.77-2.12a22.28 22.28 0 00-6.19 1.31l-.8-1.83a35.64 35.64 0 017.26-1.24 5.73 5.73 0 012.86.66 3.63 3.63 0 011.73 3.17 4.27 4.27 0 01-2.75 4.07 16.21 16.21 0 01-5.17 1.24zm-5.58 8.33c4.5-.56 9.74-1.1 13.5-1.4l.31 2A9.42 9.42 0 0069.92 38a5.7 5.7 0 00-3 4.59c0 2.29 1.78 3.51 5.31 3.64l.09 2.23c-4.56-.06-7.54-2.29-7.54-5.64a6.74 6.74 0 013.07-5.53c-2.46.31-5.31.71-7.2 1zm6.14 21.94a8 8 0 012.63-.45c3 0 4.91 1.53 4.91 4 0 2.92-2.41 4.76-6.25 4.76-2.46 0-4.14-1.12-4.14-2.78a2.45 2.45 0 012.7-2.16 4.42 4.42 0 014 2.72 2.84 2.84 0 001.53-2.59c0-1.37-1.19-2.29-3-2.29-2.47 0-4.6 1.06-6.85 3.42l-1.4-1.51c2.83-2.47 4.77-4.27 7.45-6.84-1.54.25-3.18.45-5 .59l-.32-2c3.29-.16 5.78-.37 7.52-.63l1 1.39zm-.16 4.88c-.56 0-1 .31-1 .74 0 .67.8 1.06 2.09 1.06a5.91 5.91 0 001.12-.09c-.63-1.09-1.42-1.71-2.21-1.71zm2.12 7.18v3.62a25.88 25.88 0 004.21-.5l.34 1.94a29.34 29.34 0 01-4.55.49v3.89A24.47 24.47 0 0173.59 82l-1.22 1.83a27.1 27.1 0 00-3.82-2.09v.18c0 1.21-.23 1.84-.83 2.25a4.15 4.15 0 01-2.34.58c-2.41 0-4.21-1.22-4.21-2.86s1.69-2.65 4.18-2.65a10.19 10.19 0 011.15.07l-.11-9zm-1.94 10.81a7.32 7.32 0 00-1.43-.15c-1.26 0-2 .36-2 1S64 83 65.24 83c.92 0 1.28-.34 1.28-1.23zM62 93.93a28.13 28.13 0 016.61-1.39 3.93 3.93 0 014.14 4.23c0 3.8-2 6-6.68 7.35l-1.26-1.91a12.35 12.35 0 004-1.75 4.2 4.2 0 001.64-3.63 2.07 2.07 0 00-2.06-2.33 24 24 0 00-5.6 1.5zm7.76-1.86a28.11 28.11 0 00-5-1.92l1-1.86a28.84 28.84 0 015 1.91zm-9.4 17.28c4.5-.56 9.74-1.1 13.5-1.4l.31 2a9.42 9.42 0 00-4.25 1.19 5.7 5.7 0 00-3 4.59c0 2.29 1.78 3.51 5.31 3.64l.09 2.23c-4.56 0-7.54-2.29-7.54-5.64a6.71 6.71 0 013.07-5.52c-2.46.3-5.31.7-7.2 1zm11.94 5.94a12.55 12.55 0 00-1.72-2.39l1.21-.76a11.11 11.11 0 011.73 2.33zm2-1.35a11.37 11.37 0 00-1.8-2.3l1.19-.83a11.83 11.83 0 011.83 2.27zM34.17 4.1a9.62 9.62 0 01-1.26 2.29l-1.56-1.15a12.18 12.18 0 002-5.24l2 .23v.08a17.74 17.74 0 01-.45 2H39V4.1h-2.18v2.67h2.68v1.84h-2.73a7.67 7.67 0 01-.13 1.11 23.28 23.28 0 013.28 3.19l-1.26 1.89a26 26 0 00-2.47-3.08 9 9 0 01-3.35 4.63l-1.4-1.71a7.47 7.47 0 003.44-6h-3.41V6.77H35V4.1zM46.81 2v13.25h-1.94v-1h-2.94v1.2H40V2zm-4.88 10.3h2.94V3.85h-2.94zm-8.01 17.89a55.71 55.71 0 011.14-7.35l2.07.33c-.27 1.22-.54 2.57-.9 4.55A7.36 7.36 0 0141 26c2.79 0 4.79 1.62 4.79 3.87a4.32 4.32 0 01-2.9 4 15 15 0 01-5.37 1l-.85-2c4.65-.18 6.79-1.1 6.79-3 0-1.2-.92-2-2.37-2a8.11 8.11 0 00-5.48 2.77zm6.77-6.72a21.27 21.27 0 00-4.81-2.3L37 19.44a25.78 25.78 0 014.88 2.16zM32.72 41.2h1c.61 0 1.15 0 2-.09.3-1.08.5-1.89.7-3l2.09.25c-.22 1-.4 1.71-.63 2.52a16.07 16.07 0 002.25-.47l.11 2c-.89.18-2 .35-3 .44a30.19 30.19 0 01-3.8 7.45l-1.8-1.1a27.13 27.13 0 003.38-6.17c-.81 0-1.76.09-2.34.09zm10 2.34l.12 4.83a18.75 18.75 0 014.09 1.93l-1.15 1.76a13.52 13.52 0 00-2.88-1.71v.36c0 1.53-1 2.3-3 2.3-2.36 0-3.82-1-3.82-2.66s1.44-2.5 3.62-2.5a7.75 7.75 0 011.11.07l-.07-4.38zM41 49.68a6.14 6.14 0 00-1.42-.18c-1.1 0-1.74.31-1.74.85s.84 1 2 1A1.08 1.08 0 0041 50.13zm4.27-4.61a17.68 17.68 0 00-3.67-3.27l1.4-1.37a24.12 24.12 0 013.75 3.11zM31.94 60.84c.88-.16 2.09-.32 3.55-.5a38.58 38.58 0 00.83-3.86l2.1.36c-.21 1-.38 1.72-.77 3.3h.9a2.77 2.77 0 012.72 1.7 6.48 6.48 0 01.29 2.28 14.26 14.26 0 01-1.05 5.46 2 2 0 01-2 1.28 5.85 5.85 0 01-2.5-.65l.2-2.11a5.07 5.07 0 001.89.61c.27 0 .45-.14.61-.52A11.29 11.29 0 0039.5 64c0-1.55-.32-2-1.35-2a7.18 7.18 0 00-1 .09 35.52 35.52 0 01-3.49 8.86l-1.84-1.17A38.44 38.44 0 0035 62.32c-.54.09-1 .16-1.69.3-.31.08-.56.13-.76.17h-.2zm13.34 4.45a22.15 22.15 0 00-3.8-6l1.7-1.1a22.46 22.46 0 014 5.88zm-7.61 17.55c4.64-.38 6.64-1.4 6.64-3.38 0-1.34-1-2.13-2.77-2.13a22.14 22.14 0 00-6.2 1.32l-.79-1.84a35.53 35.53 0 017.26-1.24 5.79 5.79 0 012.86.66 3.63 3.63 0 011.73 3.17 4.27 4.27 0 01-2.76 4.07 16.07 16.07 0 01-5.16 1.24zm-5.3 9.03h3.55c.27-1 .49-2 .7-3l2.15.3c-.24 1-.29 1.19-.6 2.35l-.05.19a20.26 20.26 0 002.61-.37l.16 2c-1 .17-2.41.33-3.35.4a76.26 76.26 0 01-3.74 10.16l-2-1a50.57 50.57 0 003.58-9.06c-.93 0-1.69.06-2.88.06zm14.32 11.36a19 19 0 01-3.44.31c-3.8 0-5.13-.92-5.51-3.8l1.87-.74c.13 1.84.94 2.41 3.39 2.41a23.13 23.13 0 003.47-.3zm-7.67-8a26.44 26.44 0 016.7-.77v2a24.64 24.64 0 00-6.47.74z"/><path d="M16.37 7h-2V3.15H3.29v-2h13.08zM2.84 19.86c-.54.05-1.09.09-2.21.16h-.2L0 18.24h1.48l.09-.09.27-.36s.32-.38.46-.56l.2-.23a20.5 20.5 0 00-2.21-2.73l1.06-1.36.23.25a5.51 5.51 0 01.38.41 16.39 16.39 0 001.57-2.86l1.69.86a26.84 26.84 0 01-2.29 3.17l.06.07c.34.46.36.47.58.78.77-1.1 1.36-2 1.85-2.79l1.51.93a36.84 36.84 0 01-3.51 4.43c.29 0 .45 0 1.62-.09h.13a10.67 10.67 0 00-.51-1.23l1.26-.5a15.65 15.65 0 011.32 3.4l-1.41.68v-.07l-.06-.25c0-.2-.07-.31-.14-.58a7.22 7.22 0 01-.9.15h-.15V27H2.84zM0 25.06a18 18 0 00.68-4.23L2.3 21a19.72 19.72 0 01-.68 4.85zm5.88-.54a14.19 14.19 0 00-1-3.35l1.4-.54a15.65 15.65 0 011.14 3.06zm3.53-7.45A9.79 9.79 0 017.65 19l-1.13-1.54a12.32 12.32 0 003.73-6.26h2.07a15.06 15.06 0 004.41 5.8l-1.08 1.85a18.55 18.55 0 01-2-2.12V18h-4.2zm6.61 2.43v1.72h-4.3a32.12 32.12 0 01-1.21 3.19c.73-.05 1.82-.2 2.76-.34l-.07-.13c-.49-.93-.61-1.15-.87-1.56l1.55-.69a31.31 31.31 0 012.41 4.22L14.58 27v-.09c-.2-.47-.31-.72-.31-.74s-.12-.27-.25-.56a59.52 59.52 0 01-6.28 1.1l-.53-2c.38 0 1-.05 1.37-.11a22.23 22.23 0 001.17-3.37H7.44V19.5zm-2.7-3.15a18.64 18.64 0 01-2-3.08A12.87 12.87 0 0110 16.35zM9.31 30.76v3.46h6.61v1.87H9.85a22.27 22.27 0 006.68 6l-1.41 1.93A23.93 23.93 0 019.22 38v3.79h3v1.83H9.31v3.21h-2.2v-3.25H4.52v-1.74a20.05 20.05 0 01-3 2.66L.07 42.74a18.7 18.7 0 006.57-6.65h-6v-1.87h6.5v-3.46zM7.2 38.13a19.38 19.38 0 01-2.61 3.62H7.2zM.16 50.6h2v3.82h11.07v2H.16z" fill="#14a05f"/><path d="M2 66c1.14.16 2.31.27 3.48.32.13-1 .2-1.64.36-2.92v-.27l2.16.19c-.14 1.08-.32 2.44-.37 3.05 1.22 0 2.7-.09 3.81-.2v1.94c-1.15.09-2.26.15-4 .17-.09.52-.16 1.08-.27 2.14a26.38 26.38 0 003.78-.25v2a40 40 0 01-4 .19A13.68 13.68 0 006.73 74 2.27 2.27 0 007 75.35c.44.81 1.19 1.15 2.51 1.15 1.89 0 2.77-.82 2.77-2.57a7.61 7.61 0 00-.34-2.32l2.14-.2a9.53 9.53 0 01.36 2.59c0 3-1.76 4.63-5 4.63s-4.77-1.48-4.77-4.3a14.09 14.09 0 01.16-2c-.72 0-1.91-.1-2.88-.23l.21-2c.92.12 2 .25 2.9.29 0-.53.13-1.23.26-2.11-1.62-.09-2.67-.18-3.5-.29zm12.67 21.68a17.39 17.39 0 00-3.33-4.05l1.79-1.51A20.89 20.89 0 0116.58 86zM3.31 96.35c2.52-.09 5.76-.32 8.16-.61l1 1.35c-2.09 1.86-3.46 3-4.7 4 2.1-.23 4.72-.57 6.91-.9l.22 1.95a16.38 16.38 0 00-4.92 1 3.24 3.24 0 00-2 2.92c0 1.62 1.37 2.27 4.79 2.25l.09 2.21a11.49 11.49 0 01-4.95-.93 3.74 3.74 0 01-2.15-3.33 4.1 4.1 0 012-3.39l-1.82.24-.72.1-1.76.24-1.62.23-.4.06-.23-1.95c.88-.07 2.36-.23 3.35-.34a41.71 41.71 0 004.51-3.74c-1.44.23-3.25.45-5.4.64zm4.76 29.58c3.76-1 5.4-2.59 5.4-5.4a4.26 4.26 0 00-2.16-3.83 4.34 4.34 0 00-1.71-.62 18.55 18.55 0 01-2.15 8.07c-1 1.82-2 2.66-3.15 2.66a3.16 3.16 0 01-2.12-1 5.32 5.32 0 01-1.59-4 7.73 7.73 0 013.77-6.46 7.76 7.76 0 014.25-1.15c4.16 0 7.22 2.72 7.22 6.41s-2.25 6.12-6.58 7.09zm-.62-9.83a5.43 5.43 0 00-2.73 1.35 5.62 5.62 0 00-2 4.3c0 1.43.72 2.83 1.46 2.83.38 0 .76-.38 1.28-1.31a18.33 18.33 0 002-6.88zM.49 133.72a35.19 35.19 0 006.82-2.25L8.46 133c-2.79 2.7-4.3 5.24-4.3 7.24a2.8 2.8 0 002.93 3c2.42 0 3.89-2.1 3.89-5.53a13.07 13.07 0 00-.9-5l2-.79a27.84 27.84 0 004.27 6l-1.51 1.78a25.11 25.11 0 01-2.31-3.94 16.92 16.92 0 01.29 2.89c0 4.18-2.16 6.7-5.74 6.7a5 5 0 01-4-1.76 4.38 4.38 0 01-.92-2.88 9 9 0 013.15-6.54 30.07 30.07 0 01-4 1.5zm13.61 29.13a37.21 37.21 0 01-5.57.49 10.24 10.24 0 01-4.12-.62 3.26 3.26 0 01-2.14-3.06c0-1.55.9-2.9 2.65-3.94a9.15 9.15 0 011.08-.63 50.09 50.09 0 01-1.65-5.92l2.21-.31A48.42 48.42 0 008 154.17a45.66 45.66 0 014.9-1.67l.91 2.07c-6.12 1.4-9.31 3.08-9.31 4.88 0 1.22 1.21 1.8 3.8 1.8a30.29 30.29 0 005.51-.58zM.65 169.92a44.91 44.91 0 018.89-1.44 6.56 6.56 0 013.82 1 4.42 4.42 0 011.78 3.75 5.29 5.29 0 01-3.29 4.77 19.22 19.22 0 01-6.45 1.55l-1-2.09a20.15 20.15 0 005.94-1.17 3.44 3.44 0 002.36-3.17c0-1.82-1-2.67-3.22-2.67-1.82 0-3.73.36-8 1.53z"/></svg>