<svg xmlns="http://www.w3.org/2000/svg" viewBox="0 0 58.96 452.45"><path d="M41.49 5.47a13.4 13.4 0 01-1.68 3.05L37.72 7a16.2 16.2 0 002.69-7L43 .31v.1A25.07 25.07 0 0142.38 3H48v2.47h-3V9h3.58v2.45h-3.64a8.82 8.82 0 01-.17 1.55 30.11 30.11 0 014.37 4.25l-1.68 2.52a31.75 31.75 0 00-3.29-4.1 11.93 11.93 0 01-4.46 6.16l-1.87-2.28a9.94 9.94 0 004.58-8h-4.53V9h4.63V5.47zm16.85-2.83v17.69h-2.6v-1.39h-3.91v1.61h-2.54V2.64zm-6.51 13.75h3.91V5.14h-3.91zm-5.69 20.86c6.19-.5 8.86-1.87 8.86-4.51 0-1.78-1.39-2.84-3.7-2.84a30 30 0 00-8.25 1.76L42 29.21a47.21 47.21 0 019.67-1.66 7.63 7.63 0 013.82.89 4.83 4.83 0 012.3 4.23 5.68 5.68 0 01-3.67 5.42 21.62 21.62 0 01-6.89 1.66zM38.7 48.36c6-.74 13-1.46 18-1.87l.41 2.62a12.6 12.6 0 00-5.66 1.58 7.61 7.61 0 00-4 6.12c0 3 2.37 4.68 7.08 4.85l.12 3c-6.07-.07-10.06-3-10.06-7.51a9 9 0 014.11-7.37c-3.29.41-7.09.94-9.61 1.37zm8.19 29.26a10.39 10.39 0 013.5-.6c4 0 6.55 2 6.55 5.33 0 3.88-3.21 6.33-8.32 6.33-3.29 0-5.53-1.49-5.53-3.69 0-1.64 1.59-2.88 3.61-2.88 2.2 0 4 1.22 5.25 3.62a3.74 3.74 0 002-3.46c0-1.82-1.58-3-4-3-3.29 0-6.12 1.41-9.12 4.56l-1.87-2c3.77-3.29 6.36-5.69 9.94-9.12-2.07.34-4.25.6-6.6.79l-.44-2.66c4.39-.22 7.71-.51 10-.84l1.36 1.85zm-.22 6.5c-.74 0-1.29.41-1.29 1 0 .88 1 1.41 2.78 1.41a8.39 8.39 0 001.49-.12c-.87-1.47-1.92-2.29-2.98-2.29zm2.83 9.58v4.82a34.22 34.22 0 005.62-.67l.45 2.59a37.26 37.26 0 01-6.07.65l.05 5.18a32.41 32.41 0 016.74 3l-1.63 2.45a36.17 36.17 0 00-5.04-2.72v.24c0 1.61-.31 2.45-1.1 3a5.49 5.49 0 01-3.12.77c-3.22 0-5.62-1.63-5.62-3.82s2.26-3.52 5.57-3.52a12.8 12.8 0 011.54.09l-.15-12zm-2.59 14.4a9.22 9.22 0 00-1.9-.19c-1.68 0-2.68.48-2.68 1.27s1.2 1.41 2.88 1.41c1.22 0 1.7-.45 1.7-1.63zm-6.05 17.13c4.64-1.32 7.2-1.84 8.81-1.84a5.24 5.24 0 015.52 5.61c0 5.06-2.66 8-8.9 9.79l-1.68-2.55a16.55 16.55 0 005.28-2.24 5.59 5.59 0 002.18-4.85c0-1.87-1.08-3.1-2.74-3.1-1 0-3.33.63-7.39 2zm10.35-2.47a38.78 38.78 0 00-6.65-2.57l1.29-2.47a38.6 38.6 0 016.73 2.55zM38.7 145.8c6-.74 13-1.46 18-1.87l.41 2.62a12.6 12.6 0 00-5.66 1.58 7.61 7.61 0 00-4 6.12c0 3.05 2.37 4.68 7.08 4.85l.12 3c-6.07-.08-10.06-3.05-10.06-7.52a9 9 0 014.11-7.37c-3.29.41-7.09.94-9.61 1.37zm15.92 7.92a16.75 16.75 0 00-2.29-3.19l1.61-1a14.8 14.8 0 012.31 3.1zm2.71-1.8a15 15 0 00-2.4-3.07l1.58-1.1a15.57 15.57 0 012.45 3z"/><path d="M22.11 195.94h-2.64v-5.09H4.68v-2.64h17.43zM2.62 212c-.39.67-.8 1.27-1.56 2.35l-1-2.83A31.53 31.53 0 004.44 201l2.54.62a43.29 43.29 0 01-1.87 5.64v15.41H2.62zm7.89-9.29v11.59c1.44-.58 3-1.27 4.08-1.87l.34 2.4a56.74 56.74 0 01-8.16 3.86l-1-2.76c.48-.12 1-.29 2.06-.67l.17-.05v-12.5zM20 202v2.95c0 5.45-.36 8.16-1.37 10.44a35.86 35.86 0 013.84 4l-1.8 2.67a34.93 34.93 0 00-3.38-4.37 15.51 15.51 0 01-6.5 4.94l-1.76-2.3c3.65-1.34 6.39-3.67 7.39-6.29.73-1.82 1-4 1-8.42V202zm-5.95 7.61a25.85 25.85 0 00-2.93-4.85l2.16-1.51a29.06 29.06 0 013 4.65zm-6.78 17.81v2.16h3.56v2.11H8l1.77.6A18.29 18.29 0 018.69 235h2.66v2.11H8.71l1.13.7a11.34 11.34 0 01-5 3.74l-1.22-1.65a9.16 9.16 0 004.16-2.76h-4.3v1.71c0 5.4-.36 7.61-1.58 10l-1.9-2c.91-1.77 1.18-3.6 1.18-8.06V235h2.08a10.56 10.56 0 00-.93-2.74l1.94-.6H.77v-2.11h4.05v-2.16zm-4 19.47a12.11 12.11 0 006.65-4.2l1.73 1.22a13.65 13.65 0 01-7.1 5zm.44-3.77a10.27 10.27 0 005.44-3.55l1.69 1.13a12.46 12.46 0 01-5.9 4.3zM6.6 235a18 18 0 001-3.34H4.37a11.78 11.78 0 011 2.79l-1.48.55zm15.4-6.83v2.2h-4.3a16.66 16.66 0 01-.64 1.83h4.05v12.34H19a20.75 20.75 0 013.53 2.73L20.64 249a17.66 17.66 0 00-3.84-3.43l1.44-1h-3.82l1.58 1.12a19.2 19.2 0 01-4.32 3.74l-1.82-1.87a12.45 12.45 0 004.15-3h-1.8V232.2h2.69v-.1l.12-.5c0-.22.08-.31.24-1.06v-.17h-4.03v-2.2zm-7.5 7.63h4.37v-1.68H14.5zm0 3.36h4.37v-1.68H14.5zm0 3.46h4.37v-1.78H14.5zm-10.42 23.3c-.72.07-1.46.12-2.95.22H.86l-.57-2.4h1.96l.12-.12.36-.48s.43-.51.62-.75l.26-.33a26.25 26.25 0 00-2.95-3.58l1.42-1.83.31.34c.19.19.26.29.5.55A21.91 21.91 0 005 253.73l2.26 1.15a37.46 37.46 0 01-3 4.22l.07.1c.46.6.48.62.77 1 1-1.46 1.82-2.62 2.47-3.72l2 1.25a50.84 50.84 0 01-4.68 5.9c.38 0 .6 0 2.16-.12h.17a14.09 14.09 0 00-.68-1.63l1.68-.68a21.12 21.12 0 011.76 4.54l-1.88.91v-.09l-.1-.33c-.07-.26-.1-.41-.19-.77-.27.05-.41.1-1.2.2h-.2v9.74H4.08zm-3.74 6.94a23.76 23.76 0 00.91-5.64l2.11.28a26.68 26.68 0 01-.91 6.5zm7.84-.72a18.64 18.64 0 00-1.27-4.47l1.87-.67a20.7 20.7 0 011.52 4zm4.71-9.94a13.53 13.53 0 01-2.4 2.57l-1.51-2a16.5 16.5 0 005-8.36h2.76a20 20 0 005.88 7.78l-1.44 2.47a24.68 24.68 0 01-2.62-2.83v1.71h-5.67zm8.81 3.24v2.3h-5.79A44.31 44.31 0 0114.3 272c1-.07 2.43-.26 3.68-.45l-.1-.17c-.65-1.25-.81-1.54-1.15-2.09l2.06-.91A40.73 40.73 0 0122 274l-2.28 1.42-.05-.12c-.26-.62-.41-1-.41-1l-.33-.75a82.81 82.81 0 01-8.37 1.45l-.7-2.64c.51 0 1.32-.08 1.83-.15a31.83 31.83 0 001.56-4.49H10.2v-2.3zm-3.6-4.2a23.94 23.94 0 01-2.64-4.11 16.68 16.68 0 01-1.9 4.11zM.5 280.51h2.64v5.09h14.79v2.64H.5z" fill="#f08ca0"/><path d="M3 301.08c1.51.21 3.07.36 4.63.43l.48-3.89.05-.36 2.78.22c-.19 1.44-.43 3.24-.5 4 1.63 0 3.6-.12 5.09-.26v2.59c-1.54.12-3 .19-5.4.22-.12.69-.22 1.44-.36 2.86a36.89 36.89 0 005-.34v2.66a50.27 50.27 0 01-5.38.27 17.68 17.68 0 00-.17 2.23 3 3 0 00.36 1.75c.58 1.08 1.59 1.54 3.34 1.54 2.52 0 3.7-1.11 3.7-3.43a10.15 10.15 0 00-.46-3.1l2.86-.26a12.77 12.77 0 01.48 3.43c0 4-2.35 6.17-6.72 6.17-4.18 0-6.36-2-6.36-5.74a19 19 0 01.21-2.71c-1 0-2.54-.15-3.84-.31l.29-2.64c1.22.16 2.71.33 3.86.38 0-.7.17-1.63.34-2.81-2.16-.12-3.55-.24-4.66-.38zM19.85 330a23.44 23.44 0 00-4.44-5.4l2.38-2a28.41 28.41 0 014.6 5.16zM4.7 341.52c3.36-.12 7.68-.43 10.88-.82l1.34 1.8c-2.78 2.48-4.61 4-6.26 5.28 2.8-.31 6.29-.76 9.21-1.2l.29 2.6a21.57 21.57 0 00-6.55 1.39 4.31 4.31 0 00-2.71 3.89c0 2.16 1.82 3 6.38 3l.12 3a15.3 15.3 0 01-6.6-1.25 5 5 0 01-2.86-4.44 5.44 5.44 0 012.69-4.51l-2.42.31-1 .14-2.31.29-2.16.31-.53.07-.31-2.59c1.17-.1 3.14-.31 4.46-.46a53.56 53.56 0 006-5c-1.92.31-4.34.6-7.2.86zM11 381c5-1.27 7.2-3.45 7.2-7.2a5.68 5.68 0 00-2.88-5.11 6 6 0 00-2.28-.82 24.39 24.39 0 01-2.86 10.76c-1.32 2.37-2.64 3.5-4.18 3.5a4.22 4.22 0 01-2.83-1.35 7.06 7.06 0 01-2.11-5.25 10.31 10.31 0 015-8.62 10.41 10.41 0 015.66-1.53c5.55 0 9.63 3.62 9.63 8.54s-3 8.16-8.77 9.46zm-.82-13.1a7.16 7.16 0 00-3.64 1.8 7.48 7.48 0 00-2.72 5.73c0 1.9 1 3.77 1.95 3.77.5 0 1-.5 1.7-1.75a24.26 24.26 0 002.67-9.17zM.94 391.34a46.74 46.74 0 009.09-3l1.54 2.07c-3.72 3.6-5.74 7-5.74 9.65a3.74 3.74 0 003.91 4.05c3.22 0 5.19-2.81 5.19-7.37a17.4 17.4 0 00-1.2-6.72l2.66-1a37 37 0 005.69 8l-2 2.38a34.09 34.09 0 01-3.08-5.32 22.4 22.4 0 01.39 3.86c0 5.57-2.88 8.93-7.66 8.93a6.68 6.68 0 01-5.28-2.35 5.87 5.87 0 01-1.22-3.84A11.94 11.94 0 017.42 392a39 39 0 01-5.36 2zm18.14 38.84a48.81 48.81 0 01-7.41.64 13.88 13.88 0 01-5.5-.81 4.37 4.37 0 01-2.86-4.08c0-2.07 1.2-3.87 3.53-5.26a12.64 12.64 0 011.46-.84 65.66 65.66 0 01-2.2-7.89l3-.41a63.94 63.94 0 001.85 7.08 60.1 60.1 0 016.52-2.23l1.23 2.76c-8.16 1.87-12.41 4.1-12.41 6.5 0 1.63 1.61 2.4 5.06 2.4a40.71 40.71 0 007.35-.77zm-17.93 9.43c5.74-1.32 9.48-1.92 11.86-1.92A8.75 8.75 0 0118.1 439a5.88 5.88 0 012.37 5c0 2.76-1.53 5-4.39 6.41-2 1-4.46 1.58-8.59 2.06l-1.3-2.78a26.26 26.26 0 007.92-1.57c2.09-1 3.15-2.37 3.15-4.22 0-2.42-1.39-3.55-4.3-3.55-2.42 0-5 .48-10.73 2z"/><path fill="none" stroke="#000" stroke-miterlimit="10" d="M11.65 147.03v30"/><path d="M4.42 5.47a13.4 13.4 0 01-1.68 3.05L.65 7a16.2 16.2 0 002.69-7l2.59.31v.1A22.51 22.51 0 015.3 3h5.6v2.47h-3V9h3.58v2.45H7.87A8.82 8.82 0 017.7 13a30.11 30.11 0 014.37 4.25l-1.68 2.52a32.62 32.62 0 00-3.29-4.1 11.93 11.93 0 01-4.46 6.16L.77 19.51a9.94 9.94 0 004.58-8H.82V9h4.63V5.47zm16.85-2.83v17.69h-2.6v-1.39h-3.91v1.61h-2.54V2.64zm-6.51 13.75h3.91V5.14h-3.91zM4.08 40.25a73.25 73.25 0 011.51-9.79l2.76.43C8 32.52 7.63 34.32 7.15 37a9.83 9.83 0 016.39-2.26c3.72 0 6.38 2.16 6.38 5.16 0 2.31-1.39 4.2-3.86 5.29a20.15 20.15 0 01-7.16 1.25l-1.12-2.69c6.19-.24 9-1.46 9-3.93 0-1.61-1.23-2.62-3.17-2.62a10.76 10.76 0 00-7.3 3.7zm9-8.95a29 29 0 00-6.4-3.08l1.44-2.3a34.45 34.45 0 016.5 2.88zM2.47 54.94c.53.06.94.06 1.37.06.82 0 1.54 0 2.71-.12a40.07 40.07 0 00.94-4l2.78.34c-.29 1.3-.53 2.28-.84 3.36a21.88 21.88 0 003-.62l.15 2.61c-1.18.24-2.69.46-4 .58a39.57 39.57 0 01-5.07 9.94l-2.4-1.47a35.33 35.33 0 004.51-8.23c-1.08.07-2.35.12-3.12.12zm13.35 3.12l.18 6.43a25.45 25.45 0 015.44 2.57l-1.54 2.35a17.47 17.47 0 00-3.84-2.28v.48c0 2-1.32 3.07-4 3.07C9 70.68 7 69.31 7 67.13c0-2 1.92-3.34 4.82-3.34a12.24 12.24 0 011.49.1l-.1-5.83zm-2.26 8.18a7.77 7.77 0 00-1.89-.24c-1.47 0-2.33.41-2.33 1.13s1.12 1.3 2.64 1.3a1.44 1.44 0 001.58-1.59zm5.69-6.14a23.4 23.4 0 00-4.9-4.37l1.85-1.82a31.8 31.8 0 015 4.15zM1.44 81.12c1.18-.21 2.78-.43 4.73-.67a51.33 51.33 0 001.1-5.14l2.81.48c-.29 1.35-.5 2.28-1 4.4h1.2a3.69 3.69 0 013.62 2.25 8.64 8.64 0 01.39 3 19.12 19.12 0 01-1.39 7.27 2.63 2.63 0 01-2.67 1.71 7.72 7.72 0 01-3.34-.87l.27-2.8a6.78 6.78 0 002.52.81c.36 0 .6-.19.81-.69a15 15 0 001.06-5.55c0-2.06-.43-2.71-1.8-2.71a11.19 11.19 0 00-1.39.12 46.15 46.15 0 01-4.69 11.81L1.22 93a50.67 50.67 0 004.23-9.89c-.72.12-1.27.22-2.26.41-.41.09-.74.17-1 .21l-.26.05zm17.79 5.93a30.2 30.2 0 00-5.07-8l2.26-1.46a29.83 29.83 0 015.37 7.85zm-10.16 23.4c6.19-.5 8.86-1.87 8.86-4.51 0-1.78-1.39-2.83-3.7-2.83A29.77 29.77 0 006 104.86l-1.06-2.45a47.92 47.92 0 019.67-1.66 7.76 7.76 0 013.82.89 4.83 4.83 0 012.3 4.23 5.68 5.68 0 01-3.73 5.42 21.62 21.62 0 01-6.85 1.71zM2 122.5h1.82c1.06 0 1.82 0 2.9-.07.36-1.39.65-2.62.94-4l2.86.4c-.32 1.3-.39 1.59-.8 3.12l-.07.27a24.47 24.47 0 003.48-.51l.22 2.67c-1.27.21-3.22.43-4.47.53a99.18 99.18 0 01-5 13.58l-2.69-1.32A67.69 67.69 0 006 125.14c-1.25 0-2.26.07-3.84.07zm19.1 15.14a25 25 0 01-4.59.41c-5.06 0-6.84-1.22-7.34-5.06l2.5-1c.16 2.45 1.24 3.21 4.51 3.21a30.61 30.61 0 004.63-.41zM10.87 127a35.62 35.62 0 018.93-1v2.64a33.51 33.51 0 00-8.62 1z"/></svg>