<svg xmlns="http://www.w3.org/2000/svg" viewBox="0 0 58.91 426.05"><path fill="none" stroke="#000" stroke-miterlimit="10" d="M11.6 147.03v30"/><path d="M41.44 5.47a13 13 0 01-1.68 3.05L37.67 7a16.2 16.2 0 002.69-7L43 .31v.1A24.8 24.8 0 0142.33 3h5.59v2.47H45V9h3.57v2.45h-3.68a10 10 0 01-.16 1.55 31.16 31.16 0 014.37 4.25l-1.68 2.52a33.54 33.54 0 00-3.29-4.1 12 12 0 01-4.47 6.16l-1.87-2.28a10 10 0 004.59-8h-4.54V9h4.63V5.47zm16.85-2.83v17.69H55.7v-1.39h-3.92v1.61h-2.54V2.64zm-6.51 13.75h3.92V5.14h-3.92zm-5.69 20.86c6.2-.5 8.86-1.87 8.86-4.51 0-1.78-1.39-2.84-3.69-2.84A29.93 29.93 0 0043 31.66l-1.06-2.45a47.17 47.17 0 019.68-1.66 7.61 7.61 0 013.81.89 4.84 4.84 0 012.31 4.23 5.69 5.69 0 01-3.68 5.42 21.55 21.55 0 01-6.89 1.66zm-7.44 11.11c6-.74 13-1.46 18-1.87l.4 2.62a12.6 12.6 0 00-5.66 1.58c-2.42 1.49-4 3.84-4 6.12 0 3 2.38 4.68 7.08 4.85l.12 3c-6.07-.07-10.06-3-10.06-7.51a9 9 0 014.11-7.37c-3.29.41-7.08.94-9.6 1.37zm8.19 29.26a10.39 10.39 0 013.5-.6c4 0 6.56 2 6.56 5.33 0 3.88-3.22 6.33-8.33 6.33-3.29 0-5.52-1.49-5.52-3.69 0-1.64 1.58-2.88 3.6-2.88 2.21 0 4 1.22 5.25 3.62a3.74 3.74 0 002-3.46c0-1.82-1.58-3-4-3-3.28 0-6.12 1.41-9.12 4.56l-1.87-2c3.77-3.29 6.36-5.69 9.94-9.12-2.07.34-4.25.6-6.6.79l-.44-2.66c4.4-.22 7.71-.51 10-.84l1.37 1.85zm-.22 6.5c-.74 0-1.29.41-1.29 1 0 .88 1.05 1.41 2.78 1.41a8.39 8.39 0 001.49-.12c-.86-1.47-1.92-2.29-2.98-2.29zm2.84 9.58v4.82a34 34 0 005.62-.67l.46 2.59a37.39 37.39 0 01-6.08.65v5.18a32.49 32.49 0 016.75 3l-1.64 2.45a36.14 36.14 0 00-4.99-2.72v.24c0 1.61-.32 2.45-1.11 3a5.49 5.49 0 01-3.12.77c-3.22 0-5.62-1.63-5.62-3.82s2.26-3.52 5.57-3.52a12.8 12.8 0 011.54.09l-.14-12zm-2.6 14.4a9.2 9.2 0 00-1.89-.19c-1.68 0-2.69.48-2.69 1.27s1.2 1.41 2.88 1.41c1.22 0 1.7-.45 1.7-1.63zm-6.05 17.13c4.64-1.32 7.21-1.84 8.81-1.84a5.24 5.24 0 015.52 5.61c0 5.06-2.66 8-8.9 9.79l-1.68-2.55a16.45 16.45 0 005.28-2.24 5.59 5.59 0 002.16-4.9c0-1.87-1.08-3.1-2.73-3.1-1 0-3.34.63-7.4 2zm10.35-2.47a38.78 38.78 0 00-6.65-2.57l1.3-2.47a38.49 38.49 0 016.72 2.55zM38.65 145.8c6-.74 13-1.46 18-1.87l.4 2.62a12.6 12.6 0 00-5.66 1.58c-2.42 1.49-4 3.84-4 6.12 0 3.05 2.38 4.68 7.08 4.85l.12 3c-6.07-.08-10.06-3.05-10.06-7.52a9 9 0 014.11-7.37c-3.29.41-7.08.94-9.6 1.37zm15.92 7.92a16.72 16.72 0 00-2.28-3.19l1.61-1a15.14 15.14 0 012.3 3.1zm2.71-1.8a15 15 0 00-2.4-3.07l1.58-1.1a15.21 15.21 0 012.45 3zM4.37 5.47a13 13 0 01-1.68 3.05L.6 7a16.2 16.2 0 002.69-7l2.59.31v.1A24.8 24.8 0 015.26 3h5.59v2.47H7.9V9h3.57v2.45H7.82A10 10 0 017.66 13 31.16 31.16 0 0112 17.21l-1.69 2.52a32.56 32.56 0 00-3.28-4.1 12 12 0 01-4.47 6.16L.72 19.51a9.91 9.91 0 004.58-8H.77V9H5.4V5.47zm16.85-2.83v17.69h-2.59v-1.39h-3.92v1.61h-2.54V2.64zm-6.51 13.75h3.92V5.14h-3.92zM4 40.25a74.9 74.9 0 011.51-9.79l2.76.43c-.36 1.63-.72 3.43-1.2 6.07a9.83 9.83 0 016.39-2.26c3.72 0 6.38 2.16 6.38 5.16 0 2.31-1.39 4.2-3.86 5.29a20.09 20.09 0 01-7.15 1.29l-1.1-2.69c6.19-.24 9.05-1.46 9.05-3.93 0-1.61-1.23-2.62-3.17-2.62a10.76 10.76 0 00-7.3 3.7zm9-8.95a29.11 29.11 0 00-6.41-3.08l1.44-2.3a34.17 34.17 0 016.5 2.88zM2.42 54.94c.58.06.94.06 1.37.06.82 0 1.54 0 2.71-.12a37.45 37.45 0 00.94-4l2.78.34c-.28 1.3-.52 2.28-.84 3.36a21.88 21.88 0 003-.62l.15 2.61c-1.18.24-2.69.46-4 .58a39.57 39.57 0 01-5.03 9.96l-2.4-1.47a35.71 35.71 0 004.52-8.23c-1.08.07-2.36.12-3.12.12zm13.35 3.12l.17 6.43a25.73 25.73 0 015.45 2.57l-1.54 2.35A17.24 17.24 0 0016 67.13v.48c0 2-1.32 3.07-4 3.07-3.1 0-5-1.37-5-3.55 0-2 1.92-3.34 4.83-3.34a12.22 12.22 0 011.48.1l-.09-5.83zm-2.26 8.18a7.77 7.77 0 00-1.89-.24c-1.47 0-2.33.41-2.33 1.13s1.13 1.3 2.64 1.3a1.44 1.44 0 001.58-1.59zm5.69-6.14a23.15 23.15 0 00-4.9-4.37l1.85-1.82a31.85 31.85 0 015 4.15zM1.39 81.12c1.18-.21 2.79-.43 4.73-.67a48.68 48.68 0 001.1-5.14l2.81.48c-.28 1.35-.5 2.28-1 4.4h1.2a3.7 3.7 0 013.63 2.25 8.93 8.93 0 01.38 3 19.12 19.12 0 01-1.39 7.27 2.62 2.62 0 01-2.67 1.71 7.65 7.65 0 01-3.33-.87l.26-2.8a6.83 6.83 0 002.52.81c.36 0 .6-.19.82-.69a15.24 15.24 0 001.05-5.55c0-2.06-.43-2.71-1.8-2.71a11.35 11.35 0 00-1.39.12 46.15 46.15 0 01-4.69 11.81L1.18 93a51.21 51.21 0 004.22-9.91c-.72.12-1.27.22-2.26.41-.4.09-.74.17-1 .21l-.27.05zm17.79 5.93a30 30 0 00-5.07-8l2.26-1.46a29.86 29.86 0 015.38 7.85zM9 110.45c6.2-.5 8.86-1.87 8.86-4.51 0-1.78-1.39-2.83-3.69-2.83a29.82 29.82 0 00-8.26 1.75l-1.06-2.45a47.92 47.92 0 019.67-1.66 7.73 7.73 0 013.82.89 4.84 4.84 0 012.31 4.23 5.69 5.69 0 01-3.65 5.42 21.55 21.55 0 01-6.9 1.71zM2 122.5h1.82c1.06 0 1.83 0 2.91-.07.36-1.39.64-2.62.93-4l2.86.4c-.31 1.3-.39 1.59-.79 3.12l-.08.27a24.87 24.87 0 003.49-.51l.21 2.67c-1.27.21-3.22.43-4.46.53a100.47 100.47 0 01-5 13.58l-2.68-1.32A68.49 68.49 0 006 125.14c-1.25 0-2.25.07-3.84.07zm19.08 15.14a24.85 24.85 0 01-4.58.41c-5.07 0-6.85-1.22-7.35-5.06l2.5-1c.17 2.45 1.25 3.21 4.51 3.21a30.51 30.51 0 004.63-.41zM10.83 127a35.49 35.49 0 018.92-1v2.64a33.38 33.38 0 00-8.61 1z"/><path d="M22.06 195.94h-2.64v-5.09H4.63v-2.64h17.43zm-9.56 15.43v1.44h9.44v2.11h-2.83l1.75 1.08a30.67 30.67 0 01-3.65 2.52 19.73 19.73 0 004.9 1.7l-1.71 2.31c-4.68-1.49-7.68-3.89-9.31-7.52a12.82 12.82 0 01-2.19 1.49v3.2a42.54 42.54 0 004.54-.85l.07 2.05a85.65 85.65 0 01-9.89 1.77l-.74-2.25c1.2-.12 2.71-.29 3.43-.39v-2.18a29.3 29.3 0 01-4.92 1.77L0 217.54a27.36 27.36 0 007.82-2.62H.58v-2.11h9.24v-1.44zM7.8 201v10.75H5.21v-2.92a34.82 34.82 0 01-3.46 2.2l-1.29-2.21a34.55 34.55 0 004.75-2.28V201zM3 206.64a15.79 15.79 0 00-2-3.53l2.06-1.2a15.88 15.88 0 012 3.36zM16.47 201v2.88h5.23v2h-5.23v2.69h4.7v2H9.31v-2h4.47v-2.69h-5v-2h5V201zm-3 13.9a8 8 0 002 2.42 19.82 19.82 0 003-2.42zm7.87 14.44v2.83h-8V246c0 1.84-.77 2.49-3 2.49-1.3 0-2.93-.07-4.34-.19l-.63-3.14a25.46 25.46 0 004 .43c.65 0 .87-.19.87-.77v-12.65H1.18v-2.83zM.46 254.11H3.1v5.09h14.78v2.64H.46z" fill="#e64628"/><path d="M3 274.68c1.51.21 3.07.36 4.63.43l.48-3.89v-.36l2.79.22c-.19 1.44-.44 3.24-.51 4.05 1.64 0 3.6-.12 5.09-.26v2.59c-1.53.12-3 .19-5.4.22-.12.7-.21 1.44-.36 2.86a35.27 35.27 0 005-.34v2.66a50.27 50.27 0 01-5.38.27 17.37 17.37 0 00-.16 2.23 3 3 0 00.36 1.75c.57 1.08 1.58 1.54 3.33 1.54 2.52 0 3.7-1.11 3.7-3.43a9.86 9.86 0 00-.46-3.1l2.86-.26a12.38 12.38 0 01.48 3.43c0 4-2.35 6.17-6.72 6.17-4.18 0-6.36-2-6.36-5.74a20.56 20.56 0 01.25-2.72c-1 0-2.54-.15-3.84-.31l.29-2.64c1.23.16 2.71.33 3.87.38 0-.7.16-1.63.33-2.81-2.16-.12-3.55-.24-4.65-.38zm16.8 28.87a23.44 23.44 0 00-4.44-5.4l2.38-2a28.83 28.83 0 014.61 5.16zM4.66 315.12c3.36-.12 7.68-.43 10.87-.82l1.34 1.8c-2.78 2.48-4.61 4-6.26 5.28 2.81-.31 6.29-.76 9.22-1.2l.28 2.6a21.57 21.57 0 00-6.55 1.39 4.31 4.31 0 00-2.71 3.89c0 2.16 1.82 3 6.38 3l.12 2.95a15.33 15.33 0 01-6.6-1.25 5 5 0 01-2.85-4.44 5.45 5.45 0 012.68-4.51c-1.24.17-1.63.21-2.42.31l-1 .14-2.35.32-2.16.31-.53.07-.31-2.59c1.17-.1 3.14-.31 4.46-.46a53.78 53.78 0 006-5c-1.92.31-4.35.6-7.2.86zM11 354.55c5-1.27 7.2-3.45 7.2-7.2a5.68 5.68 0 00-2.88-5.11 6 6 0 00-2.28-.82 24.53 24.53 0 01-2.85 10.76c-1.37 2.42-2.69 3.55-4.2 3.55a4.22 4.22 0 01-2.84-1.35A7.09 7.09 0 011 349.13a10.31 10.31 0 015-8.62 10.46 10.46 0 015.71-1.51c5.55 0 9.63 3.62 9.63 8.54s-3 8.16-8.76 9.46zm-.81-13.1a7.16 7.16 0 00-3.65 1.8A7.47 7.47 0 003.82 349c0 1.9 1 3.77 1.94 3.77.5 0 1-.5 1.7-1.75a24.26 24.26 0 002.67-9.17zm-9.3 23.49a46.74 46.74 0 009.09-3l1.54 2.06c-3.72 3.6-5.74 7-5.74 9.65a3.75 3.75 0 003.92 4c3.21 0 5.18-2.81 5.18-7.37a17.4 17.4 0 00-1.2-6.72l2.67-1.05a37 37 0 005.68 8l-2 2.38a33.29 33.29 0 01-3.03-5.21 23.3 23.3 0 01.38 3.86c0 5.57-2.88 8.93-7.66 8.93a6.68 6.68 0 01-5.28-2.35 5.93 5.93 0 01-1.22-3.84 11.94 11.94 0 014.2-8.71 38.46 38.46 0 01-5.35 2zM19 403.78a48.81 48.81 0 01-7.41.64 13.88 13.88 0 01-5.5-.81 4.37 4.37 0 01-2.86-4.08c0-2.07 1.2-3.87 3.53-5.26a12.54 12.54 0 011.47-.84 65.35 65.35 0 01-2.21-7.9l3-.4a66.24 66.24 0 001.85 7.08 59.58 59.58 0 016.51-2.21l1.22 2.76c-8.16 1.87-12.41 4.1-12.41 6.5 0 1.63 1.61 2.4 5.07 2.4a40.7 40.7 0 007.34-.77zm-17.9 9.43c5.74-1.32 9.48-1.92 11.86-1.92a8.75 8.75 0 015.09 1.29 5.89 5.89 0 012.38 5c0 2.76-1.54 5-4.4 6.41-2 1-4.46 1.58-8.59 2.06l-1.3-2.78a26.73 26.73 0 007.93-1.56c2.08-1 3.14-2.38 3.14-4.23 0-2.42-1.39-3.55-4.3-3.55-2.42 0-5 .48-10.73 2z"/></svg>