<svg xmlns="http://www.w3.org/2000/svg" viewBox="0 0 106.57 179.84"><path fill="none" stroke="#000" stroke-miterlimit="10" d="M70.95 111.34v20"/><path d="M93.46 4.1a9.62 9.62 0 01-1.26 2.29l-1.57-1.15a12.19 12.19 0 002-5.24l1.94.23v.08c-.18 1-.26 1.26-.45 2h4.19V4.1h-2.2v2.67h2.68v1.84h-2.74a6.51 6.51 0 01-.12 1.11 23.72 23.72 0 013.27 3.19l-1.26 1.89a25 25 0 00-2.46-3.08 9.12 9.12 0 01-3.35 4.63l-1.41-1.71a7.45 7.45 0 003.44-6h-3.4V6.77h3.47V4.1zM106.1 2v13.25h-1.94v-1h-2.94v1.2h-1.91V2zm-4.88 10.3h2.94V3.85h-2.94zM97 27.94c4.65-.38 6.65-1.41 6.65-3.39 0-1.33-1-2.12-2.78-2.12a22.42 22.42 0 00-6.19 1.31l-.79-1.83a35.46 35.46 0 017.25-1.24 5.8 5.8 0 012.87.66 3.63 3.63 0 011.73 3.17 4.28 4.28 0 01-2.76 4.07 16.21 16.21 0 01-5.17 1.24zm-5.63 8.33c4.5-.56 9.74-1.1 13.51-1.4l.3 2a9.42 9.42 0 00-4.25 1.13 5.7 5.7 0 00-3 4.59c0 2.29 1.78 3.51 5.31 3.64l.09 2.23c-4.55-.06-7.54-2.29-7.54-5.64a6.73 6.73 0 013.08-5.53c-2.47.31-5.31.71-7.2 1zm6.14 21.94a8 8 0 012.63-.45c3 0 4.92 1.53 4.92 4 0 2.92-2.42 4.76-6.25 4.76-2.47 0-4.14-1.12-4.14-2.78a2.44 2.44 0 012.7-2.16 4.4 4.4 0 013.94 2.72 2.82 2.82 0 001.53-2.59c0-1.37-1.19-2.29-3-2.29-2.47 0-4.59 1.06-6.84 3.42l-1.41-1.51c2.83-2.47 4.78-4.27 7.46-6.84-1.55.25-3.19.45-5 .59l-.33-2c3.3-.16 5.78-.37 7.53-.63l1 1.39zm-.16 4.88c-.56 0-1 .31-1 .74 0 .67.79 1.06 2.09 1.06a5.81 5.81 0 001.11-.09c-.62-1.09-1.41-1.71-2.2-1.71zm2.12 7.18v3.62a25.88 25.88 0 004.21-.5l.35 1.94a29.62 29.62 0 01-4.56.49v3.89a24.71 24.71 0 015.14 2.29l-1.23 1.83a27.1 27.1 0 00-3.82-2.09v.18c0 1.21-.23 1.84-.82 2.25a4.15 4.15 0 01-2.34.58c-2.42 0-4.22-1.22-4.22-2.86s1.69-2.65 4.18-2.65a10.19 10.19 0 011.15.07l-.11-9zm-1.94 10.81a7.15 7.15 0 00-1.42-.15c-1.26 0-2 .36-2 1S95 83 96.25 83c.92 0 1.28-.34 1.28-1.23zM93 93.93a28.23 28.23 0 016.61-1.39 3.93 3.93 0 014.14 4.23c0 3.8-2 6-6.68 7.35l-1.26-1.91a12.25 12.25 0 004-1.75 4.17 4.17 0 001.64-3.63 2.07 2.07 0 00-2.05-2.33 23.92 23.92 0 00-5.6 1.5zm7.76-1.86a27.81 27.81 0 00-5-1.92l1-1.86a29.15 29.15 0 015 1.91zm-9.39 17.28c4.5-.56 9.74-1.1 13.51-1.4l.3 2a9.42 9.42 0 00-4.25 1.19 5.7 5.7 0 00-3 4.59c0 2.29 1.78 3.51 5.31 3.64l.09 2.23c-4.55 0-7.54-2.29-7.54-5.64a6.7 6.7 0 013.08-5.52c-2.47.3-5.31.7-7.2 1zm11.94 5.94a13 13 0 00-1.71-2.39l1.2-.76a11.11 11.11 0 011.73 2.33zm2-1.35a11.37 11.37 0 00-1.8-2.3l1.19-.83a11.88 11.88 0 011.84 2.27zM65.19 4.1a10 10 0 01-1.26 2.29l-1.57-1.15a12.19 12.19 0 002-5.24l1.94.23v.08a17.74 17.74 0 01-.45 2h4.2V4.1h-2.22v2.67h2.69v1.84h-2.74a6.49 6.49 0 01-.13 1.11 23.28 23.28 0 013.28 3.19l-1.26 1.89a25 25 0 00-2.47-3.08 9 9 0 01-3.34 4.63l-1.41-1.71a7.47 7.47 0 003.44-6h-3.4V6.77H66V4.1zM77.83 2v13.25h-2v-1H73v1.2h-2V2zM73 12.3h2.93V3.85H73zm-8.06 17.89a54.06 54.06 0 011.13-7.35l2.07.33c-.27 1.22-.54 2.57-.9 4.55A7.38 7.38 0 0172 26c2.79 0 4.79 1.62 4.79 3.87a4.32 4.32 0 01-2.9 4 15 15 0 01-5.37 1l-.84-2c4.64-.18 6.79-1.1 6.79-3 0-1.2-.92-2-2.38-2a8.09 8.09 0 00-5.47 2.77zm6.77-6.72a21.48 21.48 0 00-4.81-2.3l1.1-1.73a26.35 26.35 0 014.88 2.16zM63.73 41.2h1c.61 0 1.15 0 2-.09a29 29 0 00.7-3l2.09.25c-.21 1-.4 1.71-.63 2.52a15.78 15.78 0 002.25-.47l.11 2c-.88.18-2 .35-3 .44a29.52 29.52 0 01-3.8 7.45l-1.8-1.1a26.38 26.38 0 003.38-6.17c-.81 0-1.76.09-2.34.09zm10 2.34l.13 4.83A18.7 18.7 0 0178 50.3l-1.2 1.76a13.28 13.28 0 00-2.88-1.71v.36c0 1.53-1 2.3-3 2.3-2.36 0-3.82-1-3.82-2.66s1.44-2.5 3.62-2.5a7.88 7.88 0 011.12.07l-.07-4.38zm-1.69 6.14a6.29 6.29 0 00-1.43-.18c-1.09 0-1.74.31-1.74.85s.84 1 2 1a1.08 1.08 0 001.19-1.19zm4.27-4.61a17.72 17.72 0 00-3.68-3.27L74 40.43a24.07 24.07 0 013.74 3.11zM63 60.84c.88-.16 2.08-.32 3.54-.5a38.58 38.58 0 00.83-3.86l2.11.36c-.22 1-.38 1.72-.78 3.3h.9a2.76 2.76 0 012.72 1.7 6.48 6.48 0 01.29 2.28 14.46 14.46 0 01-1 5.46 2 2 0 01-2 1.28 5.89 5.89 0 01-2.61-.69l.2-2.11a5.12 5.12 0 001.89.61c.27 0 .45-.14.61-.52a11.29 11.29 0 00.8-4.16c0-1.55-.33-2-1.35-2a7.31 7.31 0 00-1 .09 34.76 34.76 0 01-3.49 8.86l-1.84-1.17A38.44 38.44 0 0066 62.32l-1.69.3c-.31.08-.56.13-.76.17h-.19zm13.3 4.45a22.64 22.64 0 00-3.8-6l1.69-1.1a22.22 22.22 0 014 5.88zm-7.62 17.55c4.65-.38 6.65-1.4 6.65-3.38 0-1.34-1-2.13-2.78-2.13a22.09 22.09 0 00-6.19 1.32l-.79-1.84a35.46 35.46 0 017.25-1.24 5.73 5.73 0 012.86.66 3.63 3.63 0 011.73 3.17 4.27 4.27 0 01-2.75 4.07 16.21 16.21 0 01-5.17 1.24zm-5.29 9.03h3.54c.27-1 .49-2 .71-3l2.14.3c-.24 1-.29 1.19-.6 2.35l-.05.19a20.26 20.26 0 002.61-.37l.16 2c-1 .17-2.41.33-3.35.4a74.9 74.9 0 01-3.74 10.19l-2-1a51.3 51.3 0 003.59-9.06c-.94 0-1.7.06-2.88.06zm14.31 11.36a18.89 18.89 0 01-3.44.31c-3.8 0-5.13-.92-5.51-3.8l1.87-.74c.13 1.84.94 2.41 3.39 2.41a23.37 23.37 0 003.48-.3zm-7.67-8a26.49 26.49 0 016.7-.77v2a24.61 24.61 0 00-6.46.74z"/><path d="M47.38 7h-2V3.15H34.31v-2h13.07zm-2.07 4.5v6.39h-4.84v1.43h5.7v1.58h-5.7v1.17h4.89v1.55h-4.89v1.28h6.68v1.62H31.48V24.9h6.93v-1.28H34v-1.55h4.44V20.9h-3.79a14.22 14.22 0 01-2 2.41l-1.38-1.53A9.18 9.18 0 0034 17.89h-.79V11.5zm-9.45 7c-.11.27-.2.51-.33.8h2.88v-1.41h-4.17zm-.6-4.5h8v-1h-8zm0 2.41h8v-1.07h-8zm1.17 14.17v2.11h2.74v1.62h-.92a16.9 16.9 0 01-.63 1.93h1.77v1.62h-3v1.31h2.81v1.62h-2.8v.41a18.64 18.64 0 012.6 1.73l-1 1.62a19.68 19.68 0 00-1.58-1.62v3.86h-1.86V42.5A12.48 12.48 0 0132 45.8l-1.13-1.71a11 11 0 003.16-3.3h-2.6v-1.62h3.13v-1.31h-3.47v-1.62h2c-.21-.92-.3-1.3-.5-1.93h-1.16v-1.62h3.09v-2.11zM36 36.24a17.27 17.27 0 00.52-1.93h-2.21c.16.59.21.83.43 1.93zm5.73 1.9c0 4.56-.56 6.77-2.2 8.83L38 45.6c1.42-1.75 1.83-3.53 1.83-7.62v-5.49a27.61 27.61 0 005.77-1.35l1.4 1.69A33.38 33.38 0 0141.73 34v2.25h5.83v1.87h-1.94v8.65h-1.95v-8.63zm5.38 17.21v2.34H31.45v-2.34zm-2 25.42a37.09 37.09 0 01-5.56.49 10.3 10.3 0 01-4.13-.62 3.28 3.28 0 01-2.14-3.06c0-1.55.9-2.9 2.65-3.94A9.06 9.06 0 0137 73a50.69 50.69 0 01-1.66-5.92l2.22-.31A48.23 48.23 0 0039 72.09a46.43 46.43 0 014.9-1.67l.92 2.07c-6.12 1.4-9.31 3.08-9.31 4.88 0 1.22 1.21 1.8 3.8 1.8a30.38 30.38 0 005.51-.58zm-6.03 16.54c3.76-1 5.4-2.59 5.4-5.4a4.26 4.26 0 00-2.16-3.83 4.34 4.34 0 00-1.71-.62 18.41 18.41 0 01-2.14 8.07c-1 1.82-2 2.66-3.15 2.66a3.16 3.16 0 01-2.13-1 5.36 5.36 0 01-1.58-4 7.86 7.86 0 018-7.61c4.16 0 7.22 2.72 7.22 6.41s-2.25 6.12-6.57 7.09zm-.61-9.83a5.42 5.42 0 00-2.74 1.35 5.61 5.61 0 00-2 4.3c0 1.43.72 2.83 1.46 2.83.37 0 .75-.38 1.27-1.31a18.15 18.15 0 002-6.88zM33.32 111c-.45.74-.76 1.19-1.41 2.09L31 111a22.08 22.08 0 003.51-7.91l2 .43a21.65 21.65 0 01-1.15 3.37v12h-2zm9.25-7.51v4.63h4.5V110h-4.5v6.5h4.09v1.91H36.38v-1.91h4V110h-4.33v-1.91h4.36v-4.63zm-2.36 19.25v1.48h6.72v1.4h-6.72v.81H45v3.21h-4.79v.84h5.37v2h1.8v1.37h-1.8v2.9h-2V136h-3.37v1.33c0 1.21-.39 1.57-1.8 1.57-.63 0-1.65-.06-2.41-.13l-.32-1.65a17.46 17.46 0 002 .18c.41 0 .52-.09.52-.47V136h-5.69v-1.3h5.69v-.83h-7v-1.37h7v-.76h-5.66v-1.26h5.66v-.84h-4.65v-3.21h4.65v-.81h-6.57v-1.4h6.57v-1.48zm-4.79 5.78h2.78v-1h-2.78zm4.79 0h2.9v-1h-2.9zm0 4h3.39v-.76h-3.39zm0 2.2h3.39v-.83h-3.39zm-9.03 8.04h2v3.82h11.07v2H31.18z" fill="#786eb4"/><path d="M33.05 158.19c1.13.16 2.3.27 3.47.32.13-1 .2-1.64.36-2.92v-.27l2.09.16c-.15 1.08-.33 2.44-.38 3.05 1.22 0 2.7-.09 3.82-.2v1.94c-1.16.09-2.27.15-4.05.17-.09.52-.17 1.08-.27 2.14a26.57 26.57 0 003.78-.25v2a40.31 40.31 0 01-4 .19 13.34 13.34 0 00-.12 1.68 2.19 2.19 0 00.27 1.31c.43.81 1.19 1.15 2.5 1.15 1.89 0 2.77-.82 2.77-2.57a7.32 7.32 0 00-.34-2.32l2.14-.2a9.15 9.15 0 01.36 2.57c0 3-1.76 4.63-5 4.63-3.13 0-4.77-1.48-4.77-4.3a15.7 15.7 0 01.16-2 27.8 27.8 0 01-2.88-.23l.22-2c.92.12 2 .25 2.9.29 0-.53.12-1.23.25-2.11-1.62-.09-2.67-.18-3.49-.29zm12.64 21.65a17.91 17.91 0 00-3.33-4.05l1.78-1.51a21.3 21.3 0 013.46 3.87zM2.83 1C5.35.86 8.59.63 11 .34l1 1.35c-2.09 1.86-3.46 3-4.7 4 2.11-.23 4.72-.57 6.92-.9l.21 2a16.29 16.29 0 00-4.91 1 3.25 3.25 0 00-2 2.92c0 1.62 1.37 2.27 4.79 2.25l.09 2.21a11.49 11.49 0 01-4.95-.93 3.73 3.73 0 01-2.14-3.33 4.08 4.08 0 012-3.39l-1.81.24-.72.1L3 8.05l-1.62.23-.38.06-.28-1.95c.88-.07 2.36-.23 3.35-.34A41.7 41.7 0 008.59 2.3c-1.44.24-3.26.45-5.4.65zm4.75 29.53c3.76-1 5.4-2.59 5.4-5.4a4.28 4.28 0 00-2.16-3.84 4.48 4.48 0 00-1.71-.61A18.41 18.41 0 017 28.75c-1 1.82-2 2.66-3.15 2.66a3.16 3.16 0 01-2.13-1 5.36 5.36 0 01-1.61-3.95A7.72 7.72 0 013.87 20a7.78 7.78 0 014.25-1.15c4.16 0 7.22 2.71 7.22 6.41s-2.25 6.12-6.57 7.09zM7 20.7a5.42 5.42 0 00-2.74 1.35 5.61 5.61 0 00-2 4.3c0 1.43.72 2.83 1.46 2.83.37 0 .75-.38 1.27-1.31a18.15 18.15 0 002-6.88zM0 38.32a35.19 35.19 0 006.82-2.25L8 37.62c-2.79 2.7-4.31 5.24-4.31 7.24a2.81 2.81 0 002.94 3c2.41 0 3.89-2.1 3.89-5.53a13.07 13.07 0 00-.9-5l2-.79a27.82 27.82 0 004.26 6l-1.51 1.78A25.91 25.91 0 0112 40.38a16.92 16.92 0 01.29 2.89c0 4.18-2.16 6.7-5.74 6.7a5 5 0 01-4-1.76 4.44 4.44 0 01-.92-2.88 9 9 0 013.15-6.54 29.49 29.49 0 01-4 1.5zm13.61 29.13a37.09 37.09 0 01-5.56.49 10.3 10.3 0 01-4.13-.62 3.28 3.28 0 01-2.14-3.06c0-1.55.9-2.9 2.65-3.94a9.06 9.06 0 011.1-.63 50.69 50.69 0 01-1.66-5.92l2.22-.31a48.23 48.23 0 001.38 5.31 46.43 46.43 0 014.9-1.67l.92 2.07C7.17 60.57 4 62.25 4 64.05c0 1.22 1.21 1.8 3.8 1.8a30.38 30.38 0 005.51-.58zM.16 74.52a44.87 44.87 0 018.9-1.44 6.53 6.53 0 013.81 1 4.43 4.43 0 011.79 3.75 5.3 5.3 0 01-3.3 4.81 19.4 19.4 0 01-6.44 1.55l-1-2.09a20.08 20.08 0 005.96-1.2 3.44 3.44 0 002.36-3.17c0-1.82-1-2.67-3.22-2.67-1.82 0-3.73.36-8 1.53z"/></svg>