<svg xmlns="http://www.w3.org/2000/svg" viewBox="0 0 58.46 683.09"><path d="M41 5.47a12.68 12.68 0 01-1.7 3.05L37.21 7a16.2 16.2 0 002.69-7l2.6.31v.1A24.8 24.8 0 0141.87 3h5.59v2.47h-3V9h3.58v2.45h-3.6a8.82 8.82 0 01-.17 1.55 31.16 31.16 0 014.37 4.25L47 19.73a32.62 32.62 0 00-3.29-4.1 12 12 0 01-4.46 6.16l-1.88-2.28a10 10 0 004.59-8h-4.58V9H42V5.47zm16.83-2.83v17.69h-2.59v-1.39h-3.91v1.61h-2.55V2.64zm-6.5 13.75h3.91V5.14h-3.91zm-5.69 20.86c6.19-.5 8.86-1.87 8.86-4.51 0-1.78-1.4-2.84-3.7-2.84a29.93 29.93 0 00-8.26 1.76l-1-2.45a47.1 47.1 0 019.67-1.66 7.65 7.65 0 013.82.89 4.83 4.83 0 012.3 4.23 5.7 5.7 0 01-3.67 5.42 21.69 21.69 0 01-6.89 1.66zM38.2 48.36c6-.74 13-1.46 18-1.87l.41 2.62a12.65 12.65 0 00-5.67 1.58c-2.42 1.49-4 3.84-4 6.12 0 3 2.38 4.68 7.08 4.85l.12 3c-6.07-.07-10-3-10-7.51a9 9 0 014.1-7.37c-3.29.41-7.08.94-9.6 1.37zm8.18 29.26a10.41 10.41 0 013.51-.6c4 0 6.55 2 6.55 5.33 0 3.88-3.22 6.33-8.33 6.33-3.29 0-5.52-1.49-5.52-3.69 0-1.64 1.58-2.88 3.6-2.88 2.21 0 4 1.22 5.26 3.62a3.76 3.76 0 002-3.46c0-1.82-1.59-3-4-3-3.29 0-6.12 1.41-9.12 4.56l-1.88-2c3.77-3.29 6.36-5.69 9.94-9.12-2.06.34-4.25.6-6.6.79l-.43-2.66c4.39-.22 7.7-.51 10-.84l1.37 1.85zm-.21 6.5c-.75 0-1.3.41-1.3 1 0 .88 1.06 1.41 2.79 1.41a8.36 8.36 0 001.48-.12c-.86-1.47-1.92-2.29-2.97-2.29zM49 93.7v4.82a34 34 0 005.61-.67l.46 2.59a37.26 37.26 0 01-6.07.65l.05 5.18a32.41 32.41 0 016.74 3l-1.63 2.45a36.73 36.73 0 00-5.04-2.72v.24c0 1.61-.31 2.45-1.1 3a5.55 5.55 0 01-3.13.77c-3.21 0-5.61-1.63-5.61-3.82s2.25-3.52 5.57-3.52a12.76 12.76 0 011.53.09l-.14-12zm-2.59 14.4a9.29 9.29 0 00-1.9-.19c-1.68 0-2.69.48-2.69 1.27s1.2 1.41 2.88 1.41c1.23 0 1.71-.45 1.71-1.63zm-6.05 17.13c4.63-1.32 7.2-1.84 8.81-1.84a5.25 5.25 0 015.52 5.61c0 5.06-2.67 8-8.91 9.79l-1.68-2.55a16.45 16.45 0 005.28-2.24 5.6 5.6 0 002.19-4.85c0-1.87-1.08-3.1-2.74-3.1-1 0-3.33.63-7.39 2zm10.34-2.47a38.46 38.46 0 00-6.65-2.57l1.3-2.47a38.18 38.18 0 016.72 2.55zM38.2 145.8c6-.74 13-1.46 18-1.87l.41 2.62a12.65 12.65 0 00-5.67 1.58c-2.42 1.49-4 3.84-4 6.12 0 3.05 2.38 4.68 7.08 4.85l.12 3c-6.07-.08-10-3.05-10-7.52a9 9 0 014.1-7.37c-3.29.41-7.08.94-9.6 1.37zm15.91 7.92a16.72 16.72 0 00-2.28-3.19l1.61-1a15.14 15.14 0 012.3 3.1zm2.71-1.8a15 15 0 00-2.4-3.07l1.59-1.1a16 16 0 012.45 3z"/><path d="M21.6 195.94H19v-5.09H4.18v-2.64H21.6zM.05 220.49c4.92-.79 6.55-2.38 6.53-6.29h2.73c-.09 5.33-2.06 7.54-7.68 8.69zm5-18.8v12H2.28v-12zm14.3.29v11.11H7.82V202zm-9 4.51h6.41v-2.35h-6.39zm0 4.44h6.41v-2.42h-6.39zm4.22 3v4.92c0 .7.32.82 2 .82 2 0 2.09-.1 2.21-3.1l2.64.65c-.24 4.63-.63 5-5.14 5-3.7 0-4.51-.41-4.51-2.21V214zm4.15 21.77v6.89h-6.67v1.06h7.63v1.87h-7.63v1.06h9.55v2H0v-2h9.41v-1.06H1.92v-1.87h7.49v-1.06H2.88v-6.89zm-6.6-8.28v2h7.8v1.82H16.2a11.49 11.49 0 01-.79 1.63h5.95v1.88H.24v-1.88H6a13.74 13.74 0 00-.81-1.63H1.68v-1.82h7.66v-2zm-6.7 11h4v-1.15h-4zm0 2.67h4v-1.23h-4zm7.23-8.17a9.94 9.94 0 00.67-1.63H8a6.7 6.7 0 01.72 1.63zm-.65 5.5h4.18v-1.15H12zm0 2.67h4.18v-1.23H12zm0 12.73v1.3h6.52v2.54h3v1.68h-3v2.52H12v.92h7.8v1.58H12v.91h9.6V267H0v-1.73h9.38v-.91H1.8v-1.58h7.58v-.92H2.74v-1.48h6.64v-1H.05v-1.68h9.33v-1H2.74v-1.53h6.64v-1.3zm6.69 14v7.56H16v-.79H5.57v.79H2.88v-7.56zm-13.12 2.61H16v-1H5.57zm0 2.52H16v-1H5.57zM12 257.66h4v-1h-4zm0 2.72h4v-1h-4zm-1.46 35.85c5-1.27 7.2-3.45 7.2-7.2a5.7 5.7 0 00-2.88-5.11 6 6 0 00-2.28-.82 24.66 24.66 0 01-2.86 10.76c-1.37 2.42-2.69 3.55-4.2 3.55a4.18 4.18 0 01-2.83-1.35 7.06 7.06 0 01-2.11-5.25 10.28 10.28 0 015-8.62 10.48 10.48 0 015.67-1.54c5.54 0 9.62 3.63 9.62 8.55s-3 8.16-8.76 9.46zm-.82-13.1a7 7 0 00-3.65 1.8 7.47 7.47 0 00-2.71 5.73c0 1.9 1 3.77 1.94 3.77.51 0 1-.5 1.71-1.75a24.45 24.45 0 002.66-9.17zm.28 29.56a41 41 0 01-6.75 4.09l-1.84-2.5c4.51-1.63 10.92-6.72 13.85-11l2.49 1.63a31.55 31.55 0 01-4.68 5.18v13.08H10zm7.67 21.48l1.46 1.35c-1.92 6.41-6 10.44-12.24 12.14L5 345.17c5.66-1.49 9.19-4.32 10.44-8.35H2.28v-2.65zm-.94-5.28v2.67H4.32v-2.67zm.27 25.69a30.42 30.42 0 01-3.86 7.05 51 51 0 017.18 6.1l-2.48 2.37a51 51 0 00-6.45-6.33 25.15 25.15 0 01-8.45 6.57l-2-2.54c5.16-2.06 10.34-7.13 12.14-11.9l-9.79.24-.1-2.93 12.22-.21zM9.91 374.9v6.29a52.2 52.2 0 019.1 5l-1.85 2.69a54.44 54.44 0 00-7.25-4.53v10.6H6.84v-20zm-3.05 24.84v13.42a28.12 28.12 0 0011.33-7.85l1.56 2.69c-2.9 3.5-8.9 7.34-14.16 9.07l-1.8-1.58v-15.75zm5.48 22.08V441H9.22v-19.2zM6.1 455.9a24.63 24.63 0 00-4.85-3.26l1.75-2.3a22.71 22.71 0 014.94 3.16zm-3.89 5.4c7.51-1.48 12.19-4.82 15.89-11.3l2 2.35a24 24 0 01-16.24 11.76zm6.79-10a28.55 28.55 0 00-4.87-3.3l1.68-2.33a24.91 24.91 0 015 3.29zm9.63 18.14v14H16v-1.15H6.24V480H16v-3.05H7.2v-2.28H16v-2.88H6.58v-2.33zM7.37 495.22A26.24 26.24 0 002.06 491l2.16-2.43a28.51 28.51 0 015.45 4zm-5.14 8.28A20.86 20.86 0 0018 491.45l2.33 2.28a24.1 24.1 0 01-16.2 12.67zM0 511.15h2.64v5.09h14.79v2.64H0z" fill="#508caf"/><path d="M2.5 531.72c1.51.22 3.07.36 4.63.43.17-1.37.26-2.18.48-3.89v-.36l2.78.22c-.19 1.44-.43 3.24-.5 4.06 1.63 0 3.6-.12 5.09-.27v2.59c-1.54.12-3 .2-5.41.22-.12.7-.21 1.44-.36 2.86a35.27 35.27 0 005-.34v2.67a53.2 53.2 0 01-5.37.26 17.94 17.94 0 00-.17 2.23 3 3 0 00.36 1.75c.58 1.08 1.59 1.54 3.34 1.54 2.52 0 3.69-1.1 3.69-3.43a10.15 10.15 0 00-.45-3.1l2.85-.26a12.43 12.43 0 01.48 3.43c0 4-2.35 6.17-6.72 6.17-4.17 0-6.36-2-6.36-5.74a19.27 19.27 0 01.22-2.71c-1 0-2.55-.14-3.84-.31l.29-2.64c1.22.17 2.71.33 3.86.38 0-.69.17-1.63.34-2.81-2.16-.12-3.56-.24-4.66-.38zm16.85 28.87a24.19 24.19 0 00-4.44-5.4l2.37-2a28.12 28.12 0 014.61 5.16zM4.2 572.16c3.36-.12 7.68-.43 10.87-.82l1.35 1.8c-2.79 2.48-4.61 4-6.27 5.29 2.81-.32 6.29-.77 9.22-1.2l.29 2.59a21.73 21.73 0 00-6.55 1.39 4.3 4.3 0 00-2.72 3.89c0 2.16 1.83 3 6.39 3l.12 2.95a15.26 15.26 0 01-6.6-1.25 5 5 0 01-2.86-4.44 5.44 5.44 0 012.69-4.51c-1.25.17-1.63.22-2.43.31l-1 .15-2.35.31-2.16.31-.49.07-.31-2.59c1.18-.1 3.15-.31 4.47-.46a54.48 54.48 0 006-5c-1.92.31-4.34.6-7.2.86zm6.34 39.43c5-1.27 7.2-3.45 7.2-7.2a5.71 5.71 0 00-2.88-5.11 6 6 0 00-2.28-.82 24.66 24.66 0 01-2.86 10.76c-1.37 2.42-2.69 3.55-4.2 3.55a4.21 4.21 0 01-2.83-1.34 7.09 7.09 0 01-2.11-5.26 10.3 10.3 0 015-8.62 10.47 10.47 0 015.68-1.55c5.54 0 9.62 3.62 9.62 8.54s-3 8.16-8.76 9.46zm-.82-13.1a7.19 7.19 0 00-3.65 1.8A7.48 7.48 0 003.36 606c0 1.89 1 3.76 1.94 3.76.51 0 1-.5 1.71-1.75a24.45 24.45 0 002.66-9.17zM.43 622a48.21 48.21 0 009.1-3l1.53 2.06c-3.72 3.6-5.73 7-5.73 9.65a3.73 3.73 0 003.91 4c3.22 0 5.18-2.8 5.18-7.36a17.15 17.15 0 00-1.2-6.72l2.67-1.06a36.68 36.68 0 005.69 8l-2 2.38a34.08 34.08 0 01-3.07-5.26 23.31 23.31 0 01.38 3.87c0 5.56-2.88 8.93-7.65 8.93a6.69 6.69 0 01-5.28-2.36 5.88 5.88 0 01-1.23-3.84 11.94 11.94 0 014.2-8.71 38.46 38.46 0 01-5.35 2zm18.15 38.82a49.05 49.05 0 01-7.42.65 13.89 13.89 0 01-5.5-.82 4.37 4.37 0 01-2.85-4.08c0-2.06 1.2-3.86 3.53-5.26a14.38 14.38 0 011.46-.84 67.62 67.62 0 01-2.21-7.89l2.95-.41a66.24 66.24 0 001.85 7.08 59.58 59.58 0 016.53-2.25l1.23 2.76c-8.17 1.87-12.41 4.1-12.41 6.5 0 1.63 1.6 2.4 5.06 2.4a40.71 40.71 0 007.35-.77zM.65 670.25c5.73-1.32 9.48-1.92 11.85-1.92a8.73 8.73 0 015.09 1.3 5.86 5.86 0 012.38 5c0 2.76-1.54 5-4.39 6.41-2 1-4.47 1.58-8.6 2.06l-1.29-2.78a26.65 26.65 0 007.92-1.56c2.09-1 3.14-2.38 3.14-4.23 0-2.42-1.39-3.55-4.29-3.55-2.43 0-5 .48-10.73 2z"/><path fill="none" stroke="#000" stroke-miterlimit="10" d="M11.15 147.03v30"/><path d="M3.91 5.47a12.68 12.68 0 01-1.68 3.05L.14 7a16.2 16.2 0 002.69-7l2.59.31v.1A24.8 24.8 0 014.8 3h5.59v2.47H7.44V9H11v2.45H7.37A10 10 0 017.2 13a31.16 31.16 0 014.37 4.25l-1.68 2.48a32.62 32.62 0 00-3.29-4.1 12 12 0 01-4.46 6.16L.26 19.51a10 10 0 004.59-8H.31V9h4.63V5.47zm16.85-2.83v17.69h-2.59v-1.39h-3.91v1.61h-2.55V2.64zm-6.5 13.75h3.91V5.14h-3.91zM3.58 40.25a73.25 73.25 0 011.51-9.79l2.76.43c-.36 1.63-.72 3.43-1.2 6.07A9.8 9.8 0 0113 34.7c3.72 0 6.39 2.16 6.39 5.16 0 2.31-1.39 4.2-3.87 5.29a20 20 0 01-7.12 1.29l-1.13-2.69c6.19-.24 9.05-1.46 9.05-3.93 0-1.61-1.22-2.62-3.17-2.62a10.76 10.76 0 00-7.29 3.7zm9-8.95a28.9 28.9 0 00-6.41-3.08l1.44-2.3a34.53 34.53 0 016.51 2.88zM2 54.94c.55 0 .93.05 1.37.05.81 0 1.53 0 2.71-.12a37.39 37.39 0 00.93-4l2.79.34c-.29 1.3-.53 2.28-.84 3.36a21.88 21.88 0 003-.62l.14 2.61c-1.17.24-2.69.46-4 .58a39.22 39.22 0 01-5.06 9.94L.65 65.64a35.7 35.7 0 004.51-8.23c-1.08.07-2.35.12-3.12.12zm13.34 3.12l.17 6.43a25.51 25.51 0 015.45 2.57l-1.54 2.35a17.24 17.24 0 00-3.84-2.28v.48c0 2-1.32 3.07-4 3.07-3.14 0-5.09-1.37-5.09-3.55 0-2 1.92-3.34 4.83-3.34a12.24 12.24 0 011.49.1l-.1-5.83zm-2.25 8.18a7.84 7.84 0 00-1.9-.24c-1.46 0-2.33.41-2.33 1.13s1.13 1.3 2.64 1.3a1.45 1.45 0 001.59-1.59zm5.69-6.14a23.65 23.65 0 00-4.9-4.37l1.85-1.82a32.26 32.26 0 015 4.15zM.94 81.12c1.17-.21 2.78-.43 4.72-.67a51.41 51.41 0 001.11-5.14l2.81.48c-.29 1.35-.51 2.28-1 4.4h1.21a3.69 3.69 0 013.62 2.25 8.93 8.93 0 01.38 3 19.12 19.12 0 01-1.39 7.27 2.61 2.61 0 01-2.7 1.71 7.72 7.72 0 01-3.34-.87l.26-2.8a6.83 6.83 0 002.52.81c.36 0 .61-.19.82-.69A15.24 15.24 0 0011 85.32c0-2.06-.44-2.71-1.8-2.71a11.49 11.49 0 00-1.4.12 46.55 46.55 0 01-4.63 11.81L.72 93a50.59 50.59 0 004.22-9.89c-.72.12-1.27.22-2.25.41-.41.09-.75.17-1 .21l-.26.05zm17.78 5.93a29.91 29.91 0 00-5.06-8l2.25-1.46a29.62 29.62 0 015.38 7.85zm-10.15 23.4c6.19-.5 8.86-1.87 8.86-4.51 0-1.78-1.4-2.83-3.7-2.83a29.82 29.82 0 00-8.26 1.75l-1-2.45a47.8 47.8 0 019.67-1.66 7.76 7.76 0 013.82.89 4.83 4.83 0 012.3 4.23 5.7 5.7 0 01-3.67 5.42A21.69 21.69 0 019.65 113zM1.51 122.5h1.83c1 0 1.82 0 2.9-.07.36-1.39.65-2.62.94-4l2.85.4c-.31 1.3-.38 1.59-.79 3.12l-.07.27a24.47 24.47 0 003.48-.51l.22 2.67c-1.28.21-3.22.43-4.47.53a101.89 101.89 0 01-5 13.58l-2.68-1.28a69.23 69.23 0 004.78-12.07c-1.25 0-2.26.07-3.84.07zm19.08 15.14a24.85 24.85 0 01-4.58.41c-5.06 0-6.84-1.22-7.34-5.06l2.49-1c.17 2.45 1.25 3.21 4.51 3.21a30.63 30.63 0 004.64-.41zM10.37 127a35.57 35.57 0 018.93-1v2.64a33.4 33.4 0 00-8.62 1z"/></svg>