<svg xmlns="http://www.w3.org/2000/svg" viewBox="0 0 106.57 280.46"><path fill="none" stroke="#000" stroke-miterlimit="10" d="M70.95 111.34v20"/><path d="M93.46 4.1a9.62 9.62 0 01-1.26 2.29l-1.57-1.15a12.19 12.19 0 002-5.24l1.94.23v.08c-.18 1-.26 1.26-.45 2h4.19V4.1h-2.2v2.67h2.68v1.84h-2.74a6.51 6.51 0 01-.12 1.11 23.72 23.72 0 013.27 3.19l-1.26 1.89a25 25 0 00-2.46-3.08 9.12 9.12 0 01-3.35 4.63l-1.41-1.71a7.45 7.45 0 003.44-6h-3.4V6.77h3.47V4.1zM106.1 2v13.25h-1.94v-1h-2.94v1.2h-1.91V2zm-4.88 10.3h2.94V3.85h-2.94zM97 27.94c4.65-.38 6.65-1.41 6.65-3.39 0-1.33-1-2.12-2.78-2.12a22.42 22.42 0 00-6.19 1.31l-.79-1.83a35.46 35.46 0 017.25-1.24 5.8 5.8 0 012.87.66 3.63 3.63 0 011.73 3.17 4.28 4.28 0 01-2.76 4.07 16.21 16.21 0 01-5.17 1.24zm-5.63 8.33c4.5-.56 9.74-1.1 13.51-1.4l.3 2a9.42 9.42 0 00-4.25 1.13 5.7 5.7 0 00-3 4.59c0 2.29 1.78 3.51 5.31 3.64l.09 2.23c-4.55-.06-7.54-2.29-7.54-5.64a6.73 6.73 0 013.08-5.53c-2.47.31-5.31.71-7.2 1zm6.14 21.94a8 8 0 012.63-.45c3 0 4.92 1.53 4.92 4 0 2.92-2.42 4.76-6.25 4.76-2.47 0-4.14-1.12-4.14-2.78a2.44 2.44 0 012.7-2.16 4.4 4.4 0 013.94 2.72 2.82 2.82 0 001.53-2.59c0-1.37-1.19-2.29-3-2.29-2.47 0-4.59 1.06-6.84 3.42l-1.41-1.51c2.83-2.47 4.78-4.27 7.46-6.84-1.55.25-3.19.45-5 .59l-.33-2c3.3-.16 5.78-.37 7.53-.63l1 1.39zm-.16 4.88c-.56 0-1 .31-1 .74 0 .67.79 1.06 2.09 1.06a5.81 5.81 0 001.11-.09c-.62-1.09-1.41-1.71-2.2-1.71zm2.12 7.18v3.62a25.88 25.88 0 004.21-.5l.35 1.94a29.62 29.62 0 01-4.56.49v3.89a24.71 24.71 0 015.14 2.29l-1.23 1.83a27.1 27.1 0 00-3.82-2.09v.18c0 1.21-.23 1.84-.82 2.25a4.15 4.15 0 01-2.34.58c-2.42 0-4.22-1.22-4.22-2.86s1.69-2.65 4.18-2.65a10.19 10.19 0 011.15.07l-.11-9zm-1.94 10.81a7.15 7.15 0 00-1.42-.15c-1.26 0-2 .36-2 1S95 83 96.25 83c.92 0 1.28-.34 1.28-1.23zM93 93.93a28.23 28.23 0 016.61-1.39 3.93 3.93 0 014.14 4.23c0 3.8-2 6-6.68 7.35l-1.26-1.91a12.25 12.25 0 004-1.75 4.17 4.17 0 001.64-3.63 2.07 2.07 0 00-2.05-2.33 23.92 23.92 0 00-5.6 1.5zm7.76-1.86a27.81 27.81 0 00-5-1.92l1-1.86a29.15 29.15 0 015 1.91zm-9.39 17.28c4.5-.56 9.74-1.1 13.51-1.4l.3 2a9.42 9.42 0 00-4.25 1.19 5.7 5.7 0 00-3 4.59c0 2.29 1.78 3.51 5.31 3.64l.09 2.23c-4.55 0-7.54-2.29-7.54-5.64a6.7 6.7 0 013.08-5.52c-2.47.3-5.31.7-7.2 1zm11.94 5.94a13 13 0 00-1.71-2.39l1.2-.76a11.11 11.11 0 011.73 2.33zm2-1.35a11.37 11.37 0 00-1.8-2.3l1.19-.83a11.88 11.88 0 011.84 2.27zM65.19 4.1a10 10 0 01-1.26 2.29l-1.57-1.15a12.19 12.19 0 002-5.24l1.94.23v.08a17.74 17.74 0 01-.45 2h4.2V4.1h-2.22v2.67h2.69v1.84h-2.74a6.49 6.49 0 01-.13 1.11 23.28 23.28 0 013.28 3.19l-1.26 1.89a25 25 0 00-2.47-3.08 9 9 0 01-3.34 4.63l-1.41-1.71a7.47 7.47 0 003.44-6h-3.4V6.77H66V4.1zM77.83 2v13.25h-2v-1H73v1.2h-2V2zM73 12.3h2.93V3.85H73zm-8.06 17.89a54.06 54.06 0 011.13-7.35l2.07.33c-.27 1.22-.54 2.57-.9 4.55A7.38 7.38 0 0172 26c2.79 0 4.79 1.62 4.79 3.87a4.32 4.32 0 01-2.9 4 15 15 0 01-5.37 1l-.84-2c4.64-.18 6.79-1.1 6.79-3 0-1.2-.92-2-2.38-2a8.09 8.09 0 00-5.47 2.77zm6.77-6.72a21.48 21.48 0 00-4.81-2.3l1.1-1.73a26.35 26.35 0 014.88 2.16zM63.73 41.2h1c.61 0 1.15 0 2-.09a29 29 0 00.7-3l2.09.25c-.21 1-.4 1.71-.63 2.52a15.78 15.78 0 002.25-.47l.11 2c-.88.18-2 .35-3 .44a29.52 29.52 0 01-3.8 7.45l-1.8-1.1a26.38 26.38 0 003.38-6.17c-.81 0-1.76.09-2.34.09zm10 2.34l.13 4.83A18.7 18.7 0 0178 50.3l-1.2 1.76a13.28 13.28 0 00-2.88-1.71v.36c0 1.53-1 2.3-3 2.3-2.36 0-3.82-1-3.82-2.66s1.44-2.5 3.62-2.5a7.88 7.88 0 011.12.07l-.07-4.38zm-1.69 6.14a6.29 6.29 0 00-1.43-.18c-1.09 0-1.74.31-1.74.85s.84 1 2 1a1.08 1.08 0 001.19-1.19zm4.27-4.61a17.72 17.72 0 00-3.68-3.27L74 40.43a24.07 24.07 0 013.74 3.11zM63 60.84c.88-.16 2.08-.32 3.54-.5a38.58 38.58 0 00.83-3.86l2.11.36c-.22 1-.38 1.72-.78 3.3h.9a2.76 2.76 0 012.72 1.7 6.48 6.48 0 01.29 2.28 14.46 14.46 0 01-1 5.46 2 2 0 01-2 1.28 5.89 5.89 0 01-2.61-.69l.2-2.11a5.12 5.12 0 001.89.61c.27 0 .45-.14.61-.52a11.29 11.29 0 00.8-4.16c0-1.55-.33-2-1.35-2a7.31 7.31 0 00-1 .09 34.76 34.76 0 01-3.49 8.86l-1.84-1.17A38.44 38.44 0 0066 62.32l-1.69.3c-.31.08-.56.13-.76.17h-.19zm13.3 4.45a22.64 22.64 0 00-3.8-6l1.69-1.1a22.22 22.22 0 014 5.88zm-7.62 17.55c4.65-.38 6.65-1.4 6.65-3.38 0-1.34-1-2.13-2.78-2.13a22.09 22.09 0 00-6.19 1.32l-.79-1.84a35.46 35.46 0 017.25-1.24 5.73 5.73 0 012.86.66 3.63 3.63 0 011.73 3.17 4.27 4.27 0 01-2.75 4.07 16.21 16.21 0 01-5.17 1.24zm-5.29 9.03h3.54c.27-1 .49-2 .71-3l2.14.3c-.24 1-.29 1.19-.6 2.35l-.05.19a20.26 20.26 0 002.61-.37l.16 2c-1 .17-2.41.33-3.35.4a74.9 74.9 0 01-3.74 10.19l-2-1a51.3 51.3 0 003.59-9.06c-.94 0-1.7.06-2.88.06zm14.31 11.36a18.89 18.89 0 01-3.44.31c-3.8 0-5.13-.92-5.51-3.8l1.87-.74c.13 1.84.94 2.41 3.39 2.41a23.37 23.37 0 003.48-.3zm-7.67-8a26.49 26.49 0 016.7-.77v2a24.61 24.61 0 00-6.46.74z"/><path d="M47.38 7h-2V3.15H34.31v-2h13.07zM31.21 25.38c3.69-.59 4.92-1.78 4.9-4.71h2c-.07 4-1.55 5.65-5.76 6.51zm3.73-14.09v9h-2v-9zm10.73.21v8.34H37V11.5zM39 14.89h4.81v-1.77H39zm0 3.33h4.81V16.4H39zm3.17 2.28v3.7c0 .52.24.61 1.52.61 1.51 0 1.56-.07 1.65-2.33l2 .49c-.18 3.48-.47 3.76-3.85 3.76-2.77 0-3.39-.3-3.39-1.65V20.5zm3.05 16.29V42h-5v.79h5.73v1.41h-5.74v.8h7.17v1.48h-16.2V45h7v-.79h-5.56v-1.46h5.61V42h-4.89v-5.21zm-4.95-6.21v1.51h5.85v1.37h-2.79a9.1 9.1 0 01-.59 1.23h4.46v1.4H31.36v-1.4h4.28a9.39 9.39 0 00-.64-1.23h-2.56v-1.37h5.74v-1.51zm-5 8.23h3V38h-3zm0 2h3v-.92h-3zm5.41-6.12a8.17 8.17 0 00.51-1.23h-4a4.88 4.88 0 01.54 1.23zm-.48 4.12h3.13V38h-3.15zm0 2h3.13v-.92h-3.15zm0 9.57v1h4.89v1.91h2.25v1.26h-2.25v1.89H40.2v.69H46v1.19h-5.8V59h7.18v1.3h-16.2V59h7v-.68h-5.65V57.1h5.69v-.69h-5V55.3h5v-.78h-7v-1.26h7v-.75h-5v-1.16h5v-1zm5 10.53v5.68h-2V66h-7.85v.6h-2v-5.69zm-9.87 1.93h7.87v-.74h-7.85zm0 1.89h7.87V64h-7.85zm4.87-11.47h2.95v-.75H40.2zm0 2h2.95v-.78H40.2zm-1.12 26.93c3.76-1 5.4-2.59 5.4-5.4A4.26 4.26 0 0042.32 73a4.34 4.34 0 00-1.71-.62 18.41 18.41 0 01-2.14 8.07c-1 1.82-2 2.66-3.15 2.66a3.16 3.16 0 01-2.13-1 5.36 5.36 0 01-1.58-3.95 7.86 7.86 0 018-7.61c4.16 0 7.22 2.72 7.22 6.41S44.59 83 40.27 84zm-.61-9.83a5.42 5.42 0 00-2.74 1.35 5.61 5.61 0 00-2 4.3c0 1.43.72 2.83 1.46 2.83.37 0 .75-.38 1.27-1.31a18.15 18.15 0 002-6.88zm.21 22.18a30.3 30.3 0 01-5.06 3.06l-1.38-1.87a26.19 26.19 0 0010.39-8.25l1.87 1.22a23.91 23.91 0 01-3.5 3.89v9.82h-2.32zm5.75 16.11l1.1 1a12.57 12.57 0 01-9.19 9.11l-1.4-1.88c4.25-1.11 6.89-3.24 7.83-6.26h-9.88v-2zm-.7-4v2h-9.31v-2zm.19 19.35a22.52 22.52 0 01-2.9 5.29 37.72 37.72 0 015.39 4.57l-1.86 1.79a37.67 37.67 0 00-4.84-4.76 19 19 0 01-6.34 4.94l-1.49-1.91c3.87-1.55 7.76-5.35 9.11-8.93l-7.35.18-.07-2.2 9.17-.14zm-5.31 15.19v4.72a38.75 38.75 0 016.83 3.75l-1.39 2a41 41 0 00-5.44-3.4v8h-2.3v-15zm-2.28 18.63v10.07a21.23 21.23 0 008.49-5.89l1.18 2c-2.17 2.63-6.68 5.51-10.62 6.8L34 171.63v-11.81zm4.1 16.56v14.41h-2.34v-14.41zM35.75 202a17.84 17.84 0 00-3.64-2.45l1.3-1.73a17.17 17.17 0 013.71 2.38zm-2.92 4c5.64-1.12 9.15-3.62 11.92-8.48l1.53 1.76a17.91 17.91 0 01-12.21 8.82zm5.08-7.51a20.75 20.75 0 00-3.64-2.5l1.26-1.75a18.42 18.42 0 013.73 2.47zm7.24 13.61v10.53h-2v-.87h-7.29V220h7.31v-2.29h-6.59V216h6.59v-2.16h-7.06v-1.74zm-8.45 19.33a19.48 19.48 0 00-4-3.15l1.62-1.82a21.55 21.55 0 014.09 3zm-3.85 6.21a15.6 15.6 0 0011.81-9l1.75 1.71a18.06 18.06 0 01-12.14 9.51zm-1.67 5.74h2v3.82h11.07v2H31.18z" fill="#508caf"/><path d="M33.05 258.81c1.13.16 2.3.27 3.47.32.13-1 .2-1.64.36-2.92v-.27l2.09.17c-.15 1.08-.33 2.43-.38 3 1.22 0 2.7-.09 3.82-.2v1.95c-1.16.09-2.27.14-4.05.16-.09.52-.17 1.08-.27 2.14a26.57 26.57 0 003.78-.25v2a40.31 40.31 0 01-4 .19 13.34 13.34 0 00-.12 1.68 2.19 2.19 0 00.27 1.31c.43.81 1.19 1.16 2.5 1.16 1.89 0 2.77-.83 2.77-2.58a7.32 7.32 0 00-.34-2.32l2.14-.2a9.15 9.15 0 01.36 2.57c0 3-1.76 4.63-5 4.63-3.13 0-4.77-1.47-4.77-4.3a15.7 15.7 0 01.16-2 27.8 27.8 0 01-2.88-.23l.22-2c.92.13 2 .25 2.9.29 0-.52.12-1.23.25-2.11-1.62-.09-2.67-.18-3.49-.29zm12.64 21.65a17.91 17.91 0 00-3.33-4l1.78-1.51a21.3 21.3 0 013.46 3.87zM2.83 1C5.35.86 8.59.63 11 .34l1 1.35c-2.09 1.86-3.46 3-4.7 4 2.11-.23 4.72-.57 6.92-.9l.21 2a16.29 16.29 0 00-4.91 1 3.25 3.25 0 00-2 2.92c0 1.62 1.37 2.27 4.79 2.25l.09 2.21a11.49 11.49 0 01-4.95-.93 3.73 3.73 0 01-2.14-3.33 4.08 4.08 0 012-3.39l-1.81.24-.72.1L3 8.05l-1.62.23-.38.06-.28-1.95c.88-.07 2.36-.23 3.35-.34A41.7 41.7 0 008.59 2.3c-1.44.24-3.26.45-5.4.65zm4.75 29.53c3.76-1 5.4-2.59 5.4-5.4a4.28 4.28 0 00-2.16-3.84 4.48 4.48 0 00-1.71-.61A18.41 18.41 0 017 28.75c-1 1.82-2 2.66-3.15 2.66a3.16 3.16 0 01-2.13-1 5.36 5.36 0 01-1.61-3.95A7.72 7.72 0 013.87 20a7.78 7.78 0 014.25-1.15c4.16 0 7.22 2.71 7.22 6.41s-2.25 6.12-6.57 7.09zM7 20.7a5.42 5.42 0 00-2.74 1.35 5.61 5.61 0 00-2 4.3c0 1.43.72 2.83 1.46 2.83.37 0 .75-.38 1.27-1.31a18.15 18.15 0 002-6.88zM0 38.32a35.19 35.19 0 006.82-2.25L8 37.62c-2.79 2.7-4.31 5.24-4.31 7.24a2.81 2.81 0 002.94 3c2.41 0 3.89-2.1 3.89-5.53a13.07 13.07 0 00-.9-5l2-.79a27.82 27.82 0 004.26 6l-1.51 1.78A25.91 25.91 0 0112 40.38a16.92 16.92 0 01.29 2.89c0 4.18-2.16 6.7-5.74 6.7a5 5 0 01-4-1.76 4.44 4.44 0 01-.92-2.88 9 9 0 013.15-6.54 29.49 29.49 0 01-4 1.5zm13.61 29.13a37.09 37.09 0 01-5.56.49 10.3 10.3 0 01-4.13-.62 3.28 3.28 0 01-2.14-3.06c0-1.55.9-2.9 2.65-3.94a9.06 9.06 0 011.1-.63 50.69 50.69 0 01-1.66-5.92l2.22-.31a48.23 48.23 0 001.38 5.31 46.43 46.43 0 014.9-1.67l.92 2.07C7.17 60.57 4 62.25 4 64.05c0 1.22 1.21 1.8 3.8 1.8a30.38 30.38 0 005.51-.58zM.16 74.52a44.87 44.87 0 018.9-1.44 6.53 6.53 0 013.81 1 4.43 4.43 0 011.79 3.75 5.3 5.3 0 01-3.3 4.81 19.4 19.4 0 01-6.44 1.55l-1-2.09a20.08 20.08 0 005.96-1.2 3.44 3.44 0 002.36-3.17c0-1.82-1-2.67-3.22-2.67-1.82 0-3.73.36-8 1.53z"/></svg>