<svg xmlns="http://www.w3.org/2000/svg" viewBox="0 0 58.89 604.81"><path d="M22 194.94h-2.61v-5.09H4.61v-2.64H22zm-17.49 18.4a27.68 27.68 0 01-2.57 1.54l-1.68-2.35a18.38 18.38 0 009.27-8h2.9a24.79 24.79 0 009.68 7.47l-1.47 2.45c-1.08-.58-2-1.13-2.69-1.56v8.73h-2.73v-1.2h-8v1.2H4.51zM1 205.81a16.44 16.44 0 005.93-5l2.24 1.51A20.88 20.88 0 013 208zM16.61 212a26.51 26.51 0 01-5.61-5.16A17.2 17.2 0 016.41 212zm-9.36 6h8v-3.7h-8zm11.16-10.51a38.81 38.81 0 00-6.12-5.35l2.06-1.75a39.63 39.63 0 016.15 5zM6.19 227.77v7.53c0 6.7-.77 9.7-3.29 12.7l-2.44-2.09c2.11-2.54 2.8-5.06 2.8-10.25v-7.89zm6.58.57v17.28H9.84v-17.28zm6.84-1v19.8h-3v-19.8zM2.74 263.53c-.68 1-1.11 1.51-1.76 2.28L0 263a30.94 30.94 0 004.83-10.23l2.59.72a46.16 46.16 0 01-2.14 5.62v15.33H2.74zm3.91-6.12c.65 0 1.85 0 2.85-.05a23.52 23.52 0 002.36-4.61l2.54.62a28.94 28.94 0 01-2.23 3.94h.43l2.67-.07 1.32-.05H17a21.09 21.09 0 00-2-2.06l2-1.08a29.27 29.27 0 014.39 4.58L19.08 260c-.31-.48-.48-.72-.72-1l-1.63.19v1.68c0 .62.1.67 1.22.67a9.72 9.72 0 001-.05c.58 0 .7-.33.77-1.68l2 .65c-.14 2.83-.58 3.22-3.65 3.22s-3.74-.27-3.74-1.83v-2.44l-2 .16a7.21 7.21 0 01-4.64 5.91l-1.55-1.88c2.31-.84 3.44-2 3.87-3.91h-.94c-1.29 0-1.34.08-1.77.08zM20 265.9a16.15 16.15 0 01-3.29 4.25 21.23 21.23 0 005.45 1.78l-1.49 2.35a18.76 18.76 0 01-6.07-2.47 17.76 17.76 0 01-6.67 2.78l-1.28-2.09a16.83 16.83 0 006-2.13 13.18 13.18 0 01-2-2.26 14 14 0 01-2.35 1.8l-1.49-1.75a12.75 12.75 0 005.31-5.83l2.25.65c-.29.57-.55 1.08-.93 1.7h5zm-7.68.89a12.55 12.55 0 002.4 2.21 9.36 9.36 0 002.11-2.21zm.33 12.79v5.07h8.78v2.68h-8.2a19.53 19.53 0 008.9 10.09l-1.82 2.71a22.73 22.73 0 01-8.88-10.59 15.08 15.08 0 01-1.71 4.13 34.75 34.75 0 014.47 3.75l-1.88 2.32a31.68 31.68 0 00-4.1-3.88 21.87 21.87 0 01-5.52 4.8l-2-2.52c4.89-2.45 8.06-6.34 8.81-10.81H1v-2.68h8.67v-5.07zm-4.97 26.04v2.86H11v9.7H4.27v4.7c1.25-.31 2.67-.72 3.82-1.1l-.1-.17a20.82 20.82 0 00-1-1.92l2.13-.91a25.07 25.07 0 013 5.61L9.82 326l-.05-.14c-.34-.94-.48-1.32-.77-2a63.83 63.83 0 01-7.87 2.71l-1-2.73c.43-.08 1.08-.22 1.66-.36v-15h3.3v-2.86zm-3.41 6.72h4.25v-1.8H4.27zm0 3.77h4.25v-1.9H4.27zM20.11 307l1.32 1.34a36.55 36.55 0 01-2.4 6.22c2 2.23 2.79 4.08 2.79 6.39s-.84 3.45-2.74 3.45a18.19 18.19 0 01-2.64-.21l-.44-2.73a8.49 8.49 0 002.09.27c.82 0 1.06-.27 1.06-1.27 0-1.76-.94-3.61-2.79-5.48a25.41 25.41 0 002-5.54h-3v17.78H12.7V307zM19 350.22a48.83 48.83 0 01-7.42.64 13.86 13.86 0 01-5.49-.81A4.37 4.37 0 013.24 346c0-2.07 1.2-3.87 3.53-5.26a12.64 12.64 0 011.46-.84A65.81 65.81 0 016 332l3-.4a63.94 63.94 0 001.85 7.08 61.45 61.45 0 016.52-2.24l1.23 2.76c-8.16 1.88-12.41 4.11-12.41 6.51 0 1.63 1.61 2.4 5.06 2.4a40.71 40.71 0 007.35-.77zm-8 22.05c5-1.27 7.2-3.45 7.2-7.2a5.7 5.7 0 00-2.91-5.07 6 6 0 00-2.28-.82 24.66 24.66 0 01-2.86 10.76c-1.36 2.42-2.69 3.55-4.2 3.55a4.22 4.22 0 01-2.83-1.35A7.06 7.06 0 011 366.85a10.27 10.27 0 015-8.62 10.42 10.42 0 015.66-1.54c5.54 0 9.62 3.63 9.62 8.55s-3 8.16-8.76 9.46zm-.82-13.1A7.07 7.07 0 006.5 361a7.51 7.51 0 00-2.71 5.73c0 1.9 1 3.77 2 3.77.5 0 1-.5 1.7-1.75a24.26 24.26 0 002.67-9.17zM4 391.88c-.72.07-1.47.12-2.95.22H.78l-.57-2.4h1.97l.12-.12.37-.48s.43-.51.62-.75l.26-.33a25.64 25.64 0 00-2.95-3.58l1.4-1.83.31.34c.19.19.26.29.5.55a21.91 21.91 0 002.09-3.81l2.26 1.15a37.46 37.46 0 01-3 4.22l.07.1c.46.6.48.62.77 1 1-1.46 1.82-2.62 2.47-3.72l2 1.25a51.93 51.93 0 01-4.68 5.9c.38 0 .6 0 2.16-.12h.17a14.09 14.09 0 00-.68-1.63l1.68-.68a21.12 21.12 0 011.76 4.54l-1.88.92v-.09l-.07-.34c-.07-.26-.1-.41-.19-.77a12.1 12.1 0 01-1.21.2h-.19v9.74H4zm-3.74 6.94a23.24 23.24 0 00.92-5.64l2.11.28a27.19 27.19 0 01-.91 6.46zm7.85-.72a18.64 18.64 0 00-1.27-4.47l1.87-.72a20.7 20.7 0 011.52 4.09zm4.71-9.94a13.53 13.53 0 01-2.4 2.57l-1.51-2a16.42 16.42 0 005-8.36h2.76a20.22 20.22 0 005.88 7.78l-1.44 2.47a25.51 25.51 0 01-2.61-2.83v1.71h-5.68zm8.81 3.24v2.3h-5.79a44.31 44.31 0 01-1.61 4.3c1-.07 2.43-.26 3.68-.45l-.1-.17c-.65-1.25-.82-1.54-1.15-2.09l2.06-.91a40.73 40.73 0 013.22 5.61l-2.28 1.42-.05-.12c-.26-.62-.41-1-.41-1-.09-.2-.17-.36-.33-.75a82.81 82.81 0 01-8.38 1.46l-.7-2.64c.51 0 1.32-.08 1.83-.15a31.83 31.83 0 001.56-4.49h-3v-2.3zM18 387.2a23.94 23.94 0 01-2.64-4.11 16.68 16.68 0 01-1.9 4.11zm-5.37 19.22V411h8.8v2.5h-8.08a29.72 29.72 0 008.9 8l-1.87 2.57a31.64 31.64 0 01-7.87-8.07v5h4v2.45h-3.88v4.27H9.7v-4.27H6.24v-2.33a27.18 27.18 0 01-4 3.56l-1.9-2.36a24.85 24.85 0 008.76-8.85H1V411h8.7v-4.61zm-2.81 9.82a26 26 0 01-3.48 4.82h3.48zM.43 432.87h2.64V438h14.79v2.64H.43z" fill="#64b482"/><path fill="none" stroke="#000" stroke-miterlimit="10" d="M11.58 147.03v30"/><path d="M41.42 5.47a13.4 13.4 0 01-1.68 3.05L37.65 7a16.19 16.19 0 002.68-7l2.6.31v.1A22.51 22.51 0 0142.3 3h5.6v2.47h-3V9h3.58v2.45h-3.61A8.82 8.82 0 0144.7 13a30.11 30.11 0 014.37 4.25l-1.68 2.52a32.62 32.62 0 00-3.29-4.1 11.93 11.93 0 01-4.46 6.16l-1.87-2.28a9.94 9.94 0 004.58-8h-4.54V9h4.64V5.47zm16.84-2.83v17.69h-2.59v-1.39h-3.91v1.61h-2.54V2.64zm-6.5 13.75h3.91V5.14h-3.91zm-5.69 20.86c6.19-.5 8.86-1.87 8.86-4.51 0-1.78-1.39-2.84-3.7-2.84A29.88 29.88 0 0043 31.66l-1.06-2.45a47.21 47.21 0 019.67-1.66 7.65 7.65 0 013.82.89 4.83 4.83 0 012.3 4.23A5.7 5.7 0 0154 38.09a21.62 21.62 0 01-6.89 1.66zm-7.44 11.11c6-.74 13-1.46 18-1.87l.37 2.62a12.57 12.57 0 00-5.66 1.58 7.61 7.61 0 00-4 6.12c0 3 2.37 4.68 7.08 4.85l.12 3c-6.08-.07-10.06-3-10.06-7.51a9 9 0 014.1-7.37c-3.28.41-7.08.94-9.6 1.37zm8.19 29.26a10.39 10.39 0 013.5-.6c4 0 6.55 2 6.55 5.33 0 3.88-3.21 6.33-8.33 6.33-3.28 0-5.54-1.49-5.54-3.68 0-1.64 1.59-2.88 3.6-2.88 2.21 0 4 1.22 5.26 3.62a3.76 3.76 0 002-3.46c0-1.82-1.58-3-4-3-3.29 0-6.12 1.41-9.12 4.56l-1.87-2c3.77-3.29 6.36-5.69 9.93-9.12-2.06.34-4.24.6-6.6.79l-.43-2.66c4.39-.22 7.71-.51 10-.84l1.37 1.85zm-.22 6.5c-.74 0-1.3.41-1.3 1 0 .88 1.06 1.41 2.79 1.41a8.46 8.46 0 001.49-.12c-.87-1.47-1.92-2.29-2.98-2.29zm2.83 9.58v4.82a34.22 34.22 0 005.62-.67l.45 2.59a37.26 37.26 0 01-6.07.65l.05 5.18a32.41 32.41 0 016.74 3l-1.63 2.45a36.17 36.17 0 00-5.04-2.72v.24c0 1.61-.31 2.45-1.1 3a5.51 5.51 0 01-3.12.77c-3.22 0-5.62-1.63-5.62-3.82s2.26-3.52 5.57-3.52a12.8 12.8 0 011.54.09l-.15-12zm-2.59 14.4a9.29 9.29 0 00-1.9-.19c-1.68 0-2.69.48-2.69 1.27s1.21 1.41 2.89 1.41c1.22 0 1.7-.45 1.7-1.63zm-6.05 17.13c4.63-1.32 7.2-1.84 8.81-1.84a5.24 5.24 0 015.52 5.61c0 5.06-2.66 8-8.9 9.79l-1.68-2.55a16.55 16.55 0 005.28-2.24 5.62 5.62 0 002.18-4.9c0-1.87-1.08-3.1-2.74-3.1-1 0-3.33.63-7.39 2zm10.35-2.47a38.78 38.78 0 00-6.65-2.57l1.29-2.47a38.18 38.18 0 016.72 2.55zM38.63 145.8c6-.74 13-1.46 18-1.87l.41 2.62a12.57 12.57 0 00-5.66 1.58 7.61 7.61 0 00-4 6.12c0 3.05 2.37 4.68 7.08 4.85l.12 3c-6.08-.08-10.06-3.05-10.06-7.52a9 9 0 014.1-7.37c-3.28.41-7.08.94-9.6 1.37zm15.91 7.92a16.3 16.3 0 00-2.28-3.19l1.61-1a15.53 15.53 0 012.31 3.1zm2.72-1.8a15.69 15.69 0 00-2.4-3.07l1.58-1.1a15.57 15.57 0 012.45 3zM4.34 5.47a13 13 0 01-1.67 3.05L.58 7a16.19 16.19 0 002.68-7l2.6.31v.1A22.51 22.51 0 015.23 3h5.6v2.47h-3V9h3.58v2.45H7.8A8.82 8.82 0 017.63 13 30.11 30.11 0 0112 17.21l-1.68 2.52A32.62 32.62 0 007 15.63a11.93 11.93 0 01-4.46 6.16L.7 19.51a9.94 9.94 0 004.58-8H.74V9h4.64V5.47zm16.85-2.83v17.69H18.6v-1.39h-3.91v1.61h-2.54V2.64zm-6.5 13.75h3.91V5.14h-3.91zM4 40.25a73.25 73.25 0 011.51-9.79l2.76.43c-.36 1.63-.72 3.43-1.2 6.07a9.83 9.83 0 016.39-2.26c3.72 0 6.38 2.16 6.38 5.16 0 2.31-1.39 4.2-3.86 5.29a20.15 20.15 0 01-7.16 1.29l-1.11-2.69c6.19-.24 9-1.46 9-3.93 0-1.61-1.22-2.62-3.16-2.62a10.76 10.76 0 00-7.3 3.7zm9-8.95a28.9 28.9 0 00-6.41-3.08l1.45-2.3a34.45 34.45 0 016.5 2.88zM2.4 54.94c.6.06.94.06 1.37.06.81 0 1.53 0 2.71-.12a40.07 40.07 0 00.94-4l2.78.34c-.29 1.3-.53 2.28-.84 3.36a21.88 21.88 0 003-.62l.15 2.61c-1.18.24-2.69.46-4 .58a39.22 39.22 0 01-5.06 9.94l-2.4-1.47a35.7 35.7 0 004.51-8.23c-1.08.07-2.35.12-3.12.12zm13.35 3.12l.16 6.43a25.51 25.51 0 015.45 2.57l-1.53 2.35A17.7 17.7 0 0016 67.13v.48c0 2-1.32 3.07-4 3.07-3.15 0-5.09-1.37-5.09-3.55 0-2 1.92-3.34 4.82-3.34a12.24 12.24 0 011.49.1l-.1-5.83zm-2.26 8.18a7.78 7.78 0 00-1.9-.24c-1.46 0-2.32.41-2.32 1.13s1.12 1.3 2.64 1.3a1.44 1.44 0 001.58-1.59zm5.69-6.14a23.65 23.65 0 00-4.9-4.37l1.85-1.82a32.26 32.26 0 015 4.15zM1.37 81.12c1.17-.21 2.78-.43 4.73-.67a51.33 51.33 0 001.1-5.14l2.81.48c-.29 1.35-.51 2.28-1 4.4h1.2a3.69 3.69 0 013.62 2.25 8.64 8.64 0 01.39 3 18.92 18.92 0 01-1.4 7.27 2.61 2.61 0 01-2.66 1.71 7.72 7.72 0 01-3.34-.87l.27-2.8a6.78 6.78 0 002.52.81c.36 0 .6-.19.81-.69a15 15 0 001.06-5.55c0-2.06-.43-2.71-1.8-2.71a11.19 11.19 0 00-1.39.12A46.51 46.51 0 013.6 94.54L1.15 93a50.67 50.67 0 004.23-9.89c-.72.12-1.28.22-2.26.41-.41.09-.74.17-1 .21l-.26.05zm17.78 5.93a29.91 29.91 0 00-5.06-8l2.26-1.46a29.83 29.83 0 015.37 7.85zM9 110.45c6.19-.5 8.86-1.87 8.86-4.51 0-1.78-1.39-2.83-3.7-2.83a29.77 29.77 0 00-8.25 1.75l-1.06-2.45a47.92 47.92 0 019.67-1.66 7.76 7.76 0 013.82.89 4.83 4.83 0 012.3 4.23 5.7 5.7 0 01-3.64 5.42 21.62 21.62 0 01-6.92 1.71zM1.94 122.5h1.83c1.06 0 1.82 0 2.9-.07.36-1.39.65-2.62.94-4l2.86.4c-.32 1.3-.39 1.59-.8 3.12l-.07.27a24.47 24.47 0 003.48-.51l.22 2.67c-1.27.21-3.22.43-4.47.53a100.52 100.52 0 01-5 13.58l-2.69-1.32a67.69 67.69 0 004.78-12.07c-1.25 0-2.26.07-3.84.07zM21 137.64a25 25 0 01-4.59.41c-5.06 0-6.84-1.22-7.34-5.06l2.49-1c.17 2.45 1.25 3.21 4.52 3.21a30.61 30.61 0 004.63-.41zM10.8 127a35.62 35.62 0 018.93-1v2.64a33.4 33.4 0 00-8.62 1zM2.93 453.44c1.51.21 3.07.36 4.63.43L8 450l.05-.36 2.78.22c-.19 1.44-.43 3.24-.5 4.06 1.63 0 3.6-.13 5.09-.27v2.59c-1.54.12-3 .2-5.4.22-.12.7-.22 1.44-.36 2.86a35.37 35.37 0 005-.34v2.66a50.27 50.27 0 01-5.38.27 17.68 17.68 0 00-.17 2.23 3 3 0 00.36 1.75c.58 1.08 1.59 1.54 3.34 1.54 2.52 0 3.7-1.11 3.7-3.43a10.15 10.15 0 00-.46-3.1l2.86-.26a12.77 12.77 0 01.48 3.43c0 4-2.36 6.17-6.72 6.17-4.18 0-6.37-2-6.37-5.74a19.27 19.27 0 01.22-2.71c-1 0-2.54-.15-3.84-.31l.29-2.64c1.22.16 2.71.33 3.86.38 0-.7.17-1.63.34-2.81-2.16-.12-3.55-.24-4.66-.38zm16.85 28.87a23.92 23.92 0 00-4.44-5.4l2.37-2a28.19 28.19 0 014.61 5.17zM4.63 493.88c3.36-.12 7.68-.43 10.88-.82l1.34 1.8c-2.78 2.48-4.61 4-6.27 5.28 2.81-.31 6.29-.76 9.22-1.2l.29 2.6a21.57 21.57 0 00-6.55 1.39 4.29 4.29 0 00-2.71 3.89c0 2.16 1.82 3 6.38 3l.12 2.95a15.3 15.3 0 01-6.6-1.25 5 5 0 01-2.86-4.44 5.44 5.44 0 012.69-4.51l-2.42.31-1 .14-2.35.32-2.16.31-.53.07-.32-2.59c1.18-.1 3.15-.31 4.47-.46a53.56 53.56 0 006-5c-1.92.31-4.34.6-7.2.86zM11 533.31c5-1.27 7.2-3.45 7.2-7.2a5.7 5.7 0 00-2.91-5.11 6 6 0 00-2.28-.82 24.66 24.66 0 01-2.86 10.76c-1.36 2.42-2.69 3.55-4.2 3.55a4.22 4.22 0 01-2.83-1.35A7.06 7.06 0 011 527.89a10.28 10.28 0 015-8.62 10.41 10.41 0 015.66-1.53c5.54 0 9.62 3.62 9.62 8.54s-3 8.16-8.76 9.46zm-.82-13.1A7.23 7.23 0 006.5 522a7.51 7.51 0 00-2.71 5.73c0 1.9 1 3.77 2 3.77.5 0 1-.5 1.7-1.75a24.26 24.26 0 002.67-9.17zM.86 543.7a46.82 46.82 0 009.1-3l1.54 2.07c-3.72 3.6-5.74 7-5.74 9.65a3.74 3.74 0 003.91 4.05c3.22 0 5.19-2.8 5.19-7.37a17.4 17.4 0 00-1.2-6.72l2.66-1a37 37 0 005.69 8l-2 2.38a34.08 34.08 0 01-3.07-5.26 22.42 22.42 0 01.39 3.87c0 5.56-2.88 8.92-7.66 8.92a6.68 6.68 0 01-5.28-2.35A5.88 5.88 0 013.14 553a12 12 0 014.2-8.71 38.46 38.46 0 01-5.35 2zM19 582.54a49 49 0 01-7.42.65 13.83 13.83 0 01-5.49-.82 4.37 4.37 0 01-2.86-4.08c0-2.07 1.2-3.87 3.53-5.26a12.64 12.64 0 011.46-.84A65.66 65.66 0 016 564.3l3-.41a63.94 63.94 0 001.83 7.11 59.37 59.37 0 016.52-2.23l1.23 2.76c-8.16 1.87-12.41 4.1-12.41 6.5 0 1.63 1.61 2.4 5.06 2.4a40.71 40.71 0 007.35-.77zM1.08 592c5.74-1.32 9.48-1.92 11.86-1.92a8.77 8.77 0 015.06 1.26 5.88 5.88 0 012.37 5c0 2.76-1.53 5-4.39 6.41-2 1-4.46 1.58-8.59 2.06L6.12 602a26.65 26.65 0 007.88-1.53c2.09-1 3.15-2.38 3.15-4.23 0-2.42-1.4-3.55-4.3-3.55-2.42 0-5 .48-10.73 2z"/></svg>