<svg xmlns="http://www.w3.org/2000/svg" viewBox="0 0 58.82 548.93"><path d="M41.34 5.47a12.68 12.68 0 01-1.68 3.05L37.57 7a16.2 16.2 0 002.69-7l2.6.31v.1A22.51 22.51 0 0142.23 3h5.59v2.47h-3V9h3.58v2.45h-3.6a8.82 8.82 0 01-.17 1.55A31.16 31.16 0 0149 17.21l-1.68 2.52a32.62 32.62 0 00-3.32-4.1 12 12 0 01-4.46 6.16l-1.88-2.28a10 10 0 004.59-8h-4.51V9h4.64V5.47zm16.85-2.83v17.69H55.6v-1.39h-3.91v1.61h-2.55V2.64zm-6.5 13.75h3.91V5.14h-3.91zM46 37.25c6.19-.5 8.86-1.87 8.86-4.51 0-1.78-1.4-2.84-3.7-2.84a30 30 0 00-8.26 1.76l-1-2.45a47.1 47.1 0 019.67-1.66 7.65 7.65 0 013.82.89 4.83 4.83 0 012.3 4.23A5.7 5.7 0 0154 38.09a21.69 21.69 0 01-6.89 1.66zm-7.44 11.11c6-.74 13-1.46 18-1.87l.44 2.62a12.65 12.65 0 00-5.67 1.58c-2.42 1.49-4 3.84-4 6.12 0 3 2.38 4.68 7.08 4.85l.12 3c-6.07-.07-10-3-10-7.51a9 9 0 014.1-7.37c-3.29.41-7.08.94-9.6 1.37zm8.18 29.26a10.41 10.41 0 013.51-.6c4 0 6.55 2 6.55 5.33 0 3.88-3.22 6.33-8.33 6.33-3.29 0-5.47-1.49-5.47-3.68 0-1.64 1.59-2.88 3.6-2.88 2.21 0 4 1.22 5.26 3.62a3.76 3.76 0 002-3.46c0-1.82-1.59-3-4-3-3.29 0-6.12 1.41-9.12 4.56l-1.88-2c3.77-3.29 6.36-5.69 9.94-9.12-2.06.34-4.25.6-6.6.79l-.43-2.66c4.39-.22 7.7-.51 10-.84l1.37 1.85zm-.21 6.5c-.75 0-1.3.41-1.3 1 0 .88 1.06 1.41 2.79 1.41a8.36 8.36 0 001.48-.12c-.86-1.47-1.92-2.29-2.97-2.29zm2.83 9.58v4.82a34 34 0 005.64-.67l.46 2.59a37.26 37.26 0 01-6.07.65l.05 5.18a32.41 32.41 0 016.74 3l-1.63 2.45a36.73 36.73 0 00-5.07-2.72v.24c0 1.61-.31 2.45-1.1 3a5.53 5.53 0 01-3.13.77c-3.21 0-5.61-1.63-5.61-3.82s2.25-3.52 5.57-3.52a12.76 12.76 0 011.53.09l-.14-12zm-2.59 14.4a9.29 9.29 0 00-1.9-.19c-1.68 0-2.69.48-2.69 1.27s1.2 1.41 2.88 1.41c1.23 0 1.71-.45 1.71-1.63zm-6.05 17.13c4.63-1.32 7.2-1.84 8.81-1.84a5.25 5.25 0 015.52 5.61c0 5.06-2.67 8-8.91 9.79l-1.68-2.55a16.35 16.35 0 005.28-2.24 5.6 5.6 0 002.19-4.85c0-1.87-1.08-3.1-2.74-3.1-1 0-3.33.63-7.39 2zm10.34-2.47a38.67 38.67 0 00-6.64-2.57l1.29-2.47a38.18 38.18 0 016.72 2.55zm-12.5 23.04c6-.74 13-1.46 18-1.87l.41 2.62a12.65 12.65 0 00-5.67 1.58c-2.42 1.49-4 3.84-4 6.12 0 3.05 2.38 4.68 7.08 4.85l.12 3c-6.07-.08-10-3.05-10-7.52a9 9 0 014.1-7.37c-3.29.41-7.08.94-9.6 1.37zm15.91 7.92a16.72 16.72 0 00-2.28-3.19l1.61-1a15.14 15.14 0 012.3 3.1zm2.71-1.8a15 15 0 00-2.4-3.07l1.59-1.1a16 16 0 012.45 3z"/><path d="M22 195.94h-2.68v-5.09H4.54v-2.64H22zM19.2 202v8.52h-6.45v1.9h7.6v2.11h-7.6v1.56h6.52v2.07h-6.52v1.7h8.9V222H.77v-2.16H10v-1.7H4.08v-2.07H10v-1.56H5a19.61 19.61 0 01-2.66 3.22l-1.85-2a12.29 12.29 0 003.7-5.19H3.12V202zm-12.6 9.34c-.14.36-.26.68-.43 1.06H10v-1.9H4.44zm-.79-6h10.7V204H5.81zm0 3.21h10.7v-1.49H5.81zm1.56 18.87v2.81H11v2.16H9.79A25.15 25.15 0 019 235h2.36v2.16h-4v1.75h3.75V241H7.32v.55a25.17 25.17 0 013.41 2.31l-1.3 2.16a23.46 23.46 0 00-2.11-2.16V249H4.87v-5.71a16.31 16.31 0 01-3.36 4.39L0 245.42A14.6 14.6 0 004.22 241H.7v-2.16h4.17v-1.75H.24V235H2.9a26.22 26.22 0 00-.67-2.57H.7v-2.16h4.12v-2.81zM6.79 235c.31-1 .53-1.75.7-2.57H4.54c.21.79.28 1.1.57 2.57zm7.64 2.54c0 6.08-.75 9-2.93 11.76l-2-1.82c1.9-2.33 2.45-4.7 2.45-10.15V230a36.84 36.84 0 007.68-1.8l1.82 2.25a44.7 44.7 0 01-7 1.59v3h7.75v2.49h-2.59V249H17v-11.5zm7.17 22.91v3.12H.72v-3.12zm-2.66 33.89a48.93 48.93 0 01-7.42.64 13.92 13.92 0 01-5.5-.81 4.37 4.37 0 01-2.85-4.08c0-2.07 1.2-3.87 3.53-5.26a12.64 12.64 0 011.46-.83A67.77 67.77 0 016 276.09l3-.4a63.75 63.75 0 001.84 7.08 61.68 61.68 0 016.53-2.24l1.23 2.76c-8.26 1.88-12.5 4.11-12.5 6.51 0 1.63 1.61 2.4 5.06 2.4a40.71 40.71 0 007.35-.77zm-8.04 22.05c5-1.27 7.2-3.45 7.2-7.2a5.7 5.7 0 00-2.88-5.11 6 6 0 00-2.28-.82A24.66 24.66 0 0110.08 314c-1.37 2.42-2.69 3.55-4.2 3.55a4.18 4.18 0 01-2.83-1.35A7.06 7.06 0 01.94 311a10.28 10.28 0 015-8.62 10.48 10.48 0 015.67-1.54c5.54 0 9.62 3.63 9.62 8.55s-3 8.16-8.76 9.46zm-.82-13.1a7 7 0 00-3.65 1.8 7.51 7.51 0 00-2.71 5.73c0 1.9 1 3.77 1.95 3.77.5 0 1-.5 1.7-1.75a24.45 24.45 0 002.63-9.17zm-6.86 31.34c-.6 1-1 1.58-1.88 2.79l-1.22-2.74a29.37 29.37 0 004.68-10.54l2.69.58A31.83 31.83 0 016 329.21v16.05H3.22zm12.33-10v6.17h6v2.54h-6V342H21v2.54H7.3V342h5.37v-8.67h-5.8v-2.54h5.8v-6.17zm-3.14 25.67v2h9v1.87h-9v1.08h6.36v4.27h-6.36v1.13h7.15v2.69H22v1.83h-2.4V369h-2.68v-1h-4.51v1.77c0 1.61-.53 2.09-2.4 2.09-.84 0-2.21-.07-3.22-.17l-.43-2.21a20.25 20.25 0 002.67.24c.55 0 .69-.12.69-.62V368H2.14v-1.78h7.58v-1.1H.36v-1.83h9.36v-1H2.18v-1.68h7.54v-1.13H3.53v-4.27h6.19v-1.08H1v-1.87h8.72v-2zM6 358h3.7v-1.3H6zm6.39 0h3.86v-1.3h-3.84zm0 5.3h4.51v-1h-4.49zm0 2.93h4.51v-1.1h-4.49zM.36 377H3v5.09h14.79v2.64H.36z" fill="#786eb4"/><path d="M2.86 397.56c1.51.21 3.07.36 4.63.43.17-1.37.26-2.18.48-3.89v-.36l2.78.22c-.19 1.44-.43 3.24-.5 4.05 1.63 0 3.6-.12 5.09-.26v2.59c-1.54.12-3 .19-5.4.22-.12.69-.22 1.44-.37 2.86a37 37 0 005.05-.34v2.66a50.55 50.55 0 01-5.38.27 17.68 17.68 0 00-.17 2.23 3 3 0 00.41 1.76c.58 1.08 1.59 1.54 3.34 1.54 2.52 0 3.69-1.11 3.69-3.43a10.15 10.15 0 00-.45-3.1l2.85-.26a12.38 12.38 0 01.48 3.43c0 4-2.35 6.17-6.72 6.17-4.17 0-6.36-2-6.36-5.74a19.27 19.27 0 01.22-2.71c-1 0-2.55-.15-3.84-.31l.31-2.65c1.22.16 2.71.33 3.86.38 0-.7.17-1.63.34-2.81-2.16-.12-3.56-.24-4.66-.38zm16.85 28.87a24 24 0 00-4.44-5.4l2.37-2a28.45 28.45 0 014.61 5.16zM4.56 438c3.36-.12 7.68-.43 10.87-.82l1.35 1.8c-2.79 2.48-4.61 4-6.27 5.28 2.81-.31 6.29-.76 9.22-1.2l.29 2.6a21.5 21.5 0 00-6.55 1.39 4.3 4.3 0 00-2.72 3.89c0 2.16 1.83 3 6.39 3l.12 2.95a15.26 15.26 0 01-6.6-1.25 5 5 0 01-2.86-4.44 5.44 5.44 0 012.69-4.51c-1.25.17-1.63.21-2.43.31l-1 .14-2.35.32-2.16.31-.53.07-.31-2.59c1.18-.1 3.15-.31 4.47-.46a54.48 54.48 0 006-5c-1.92.31-4.34.6-7.2.86zm6.34 39.43c5-1.27 7.2-3.45 7.2-7.2a5.7 5.7 0 00-2.88-5.11 6 6 0 00-2.28-.82 24.66 24.66 0 01-2.86 10.76c-1.37 2.42-2.69 3.55-4.2 3.55a4.18 4.18 0 01-2.83-1.35A7.06 7.06 0 01.94 472a10.28 10.28 0 015-8.62 10.48 10.48 0 015.67-1.54c5.54 0 9.62 3.63 9.62 8.55s-3 8.16-8.76 9.46zm-.82-13.1a7 7 0 00-3.65 1.8 7.51 7.51 0 00-2.71 5.73c0 1.9 1 3.77 1.95 3.77.5 0 1-.5 1.7-1.75a24.45 24.45 0 002.63-9.17zM.79 487.82a46.82 46.82 0 009.1-3l1.53 2.07c-3.71 3.6-5.73 7-5.73 9.65a3.74 3.74 0 003.91 4c3.22 0 5.19-2.81 5.19-7.37a17.22 17.22 0 00-1.21-6.72l2.67-1.05a36.68 36.68 0 005.69 8l-2 2.38a34.08 34.08 0 01-3.07-5.26 23.3 23.3 0 01.38 3.86c0 5.57-2.88 8.93-7.65 8.93A6.68 6.68 0 014.3 501a5.88 5.88 0 01-1.23-3.84 11.94 11.94 0 014.2-8.71 38.46 38.46 0 01-5.35 2zm18.15 38.84a48.93 48.93 0 01-7.42.64 13.92 13.92 0 01-5.5-.81 4.37 4.37 0 01-2.85-4.08c0-2.07 1.2-3.87 3.53-5.26a12.64 12.64 0 011.46-.84 67.23 67.23 0 01-2.16-7.9l3-.4a63.75 63.75 0 001.84 7.08 61.68 61.68 0 016.53-2.24l1.23 2.77c-8.17 1.87-12.41 4.1-12.41 6.5 0 1.63 1.61 2.4 5.06 2.4a40.71 40.71 0 007.35-.77zM1 536.09c5.74-1.32 9.48-1.92 11.86-1.92a8.72 8.72 0 015.14 1.29 5.89 5.89 0 012.38 5c0 2.76-1.54 5-4.39 6.41-2 1-4.47 1.58-8.6 2.06l-1.29-2.78a26.26 26.26 0 007.9-1.57q3.13-1.44 3.14-4.22c0-2.42-1.39-3.55-4.29-3.55-2.43 0-5 .48-10.73 2z"/><path fill="none" stroke="#000" stroke-miterlimit="10" d="M11.51 147.03v30"/><path d="M4.27 5.47a12.68 12.68 0 01-1.68 3.05L.5 7a16.2 16.2 0 002.69-7l2.6.31v.1A24.8 24.8 0 015.16 3h5.59v2.47H7.8V9h3.58v2.45H7.73A8.82 8.82 0 017.56 13a31.16 31.16 0 014.37 4.25l-1.68 2.52A32.62 32.62 0 007 15.63a12 12 0 01-4.5 6.16L.62 19.51a10 10 0 004.59-8H.67V9H5.3V5.47zm16.85-2.83v17.69h-2.59v-1.39h-3.91v1.61h-2.55V2.64zm-6.5 13.75h3.91V5.14h-3.91zM3.94 40.25a73.25 73.25 0 011.51-9.79l2.76.43C7.85 32.52 7.49 34.32 7 37a9.8 9.8 0 016.38-2.26c3.72 0 6.39 2.16 6.39 5.16 0 2.31-1.39 4.2-3.87 5.29a20 20 0 01-7.15 1.29l-1.12-2.73c6.2-.24 9.05-1.46 9.05-3.93 0-1.61-1.22-2.62-3.17-2.62a10.76 10.76 0 00-7.29 3.7zm9-8.95a28.9 28.9 0 00-6.41-3.08L8 25.92a34.53 34.53 0 016.5 2.88zM2.33 54.94c.55 0 .93.05 1.37.05.81 0 1.53 0 2.71-.12a37.39 37.39 0 00.93-4l2.79.34c-.29 1.3-.53 2.28-.84 3.36a21.88 21.88 0 003-.62l.14 2.61a39.66 39.66 0 01-4 .58 39.22 39.22 0 01-5.06 9.94L1 65.64a35.7 35.7 0 004.51-8.23c-1.08.07-2.35.12-3.12.12zm13.34 3.12l.17 6.43a25.51 25.51 0 015.45 2.57l-1.54 2.35a17.24 17.24 0 00-3.84-2.28v.48c0 2-1.32 3.07-4 3.07-3.14 0-5.08-1.37-5.08-3.55 0-2 1.92-3.34 4.82-3.34a12.24 12.24 0 011.49.1l-.1-5.83zm-2.25 8.18a7.84 7.84 0 00-1.9-.24c-1.46 0-2.33.41-2.33 1.13s1.13 1.3 2.64 1.3a1.45 1.45 0 001.59-1.59zm5.69-6.14a23.65 23.65 0 00-4.9-4.37l1.85-1.82a32.26 32.26 0 015 4.15zM1.3 81.12c1.17-.21 2.78-.43 4.72-.67a51.41 51.41 0 001.11-5.14l2.81.48c-.29 1.35-.51 2.28-1 4.4h1.17a3.69 3.69 0 013.62 2.25 8.93 8.93 0 01.38 3 19.12 19.12 0 01-1.39 7.27 2.61 2.61 0 01-2.66 1.71 7.72 7.72 0 01-3.34-.87l.28-2.8a6.83 6.83 0 002.52.81c.37 0 .61-.19.82-.69a15 15 0 001.06-5.55c0-2.06-.43-2.71-1.8-2.71a11.49 11.49 0 00-1.4.12 46.55 46.55 0 01-4.67 11.81L1.08 93a50.59 50.59 0 004.22-9.91c-.72.12-1.27.22-2.25.41-.41.09-.75.17-1 .21l-.26.05zm17.78 5.93A29.91 29.91 0 0014 79l2.25-1.46a29.62 29.62 0 015.38 7.85zm-10.15 23.4c6.19-.5 8.86-1.87 8.86-4.51 0-1.78-1.4-2.83-3.7-2.83a29.82 29.82 0 00-8.26 1.75l-1-2.45a47.8 47.8 0 019.67-1.66 7.76 7.76 0 013.82.89 4.83 4.83 0 012.3 4.23 5.7 5.7 0 01-3.67 5.42A21.69 21.69 0 0110 113zM1.87 122.5H3.7c1 0 1.82 0 2.9-.07.36-1.39.65-2.62.94-4l2.85.4c-.31 1.3-.38 1.59-.79 3.12l-.07.27a24.47 24.47 0 003.48-.51l.22 2.67c-1.28.21-3.22.43-4.47.53a101.89 101.89 0 01-5 13.58l-2.69-1.32a69.23 69.23 0 004.78-12.07c-1.25 0-2.26.07-3.84.07zM21 137.64a24.85 24.85 0 01-4.58.41c-5.06 0-6.84-1.22-7.34-5.06l2.49-1c.17 2.45 1.25 3.21 4.51 3.21a30.63 30.63 0 004.64-.41zM10.73 127a35.57 35.57 0 018.93-1v2.64a33.4 33.4 0 00-8.62 1z"/></svg>