<svg xmlns="http://www.w3.org/2000/svg" viewBox="0 0 75.39 179.56"><path fill="none" stroke="#000" stroke-miterlimit="10" d="M39.77 111.34v20"/><path d="M62.28 4.1A9.62 9.62 0 0161 6.39l-1.54-1.15a12.18 12.18 0 002-5.24l2 .23v.08a17.74 17.74 0 01-.45 2h4.2V4.1h-2.28v2.67h2.68v1.84h-2.73a7.67 7.67 0 01-.13 1.11A23.28 23.28 0 0168 12.91l-1.23 1.89a26 26 0 00-2.47-3.08 9 9 0 01-3.3 4.63l-1.4-1.71a7.47 7.47 0 003.44-6h-3.46V6.77h3.48V4.1zM74.92 2v13.25H73v-1h-3v1.2h-1.9V2zM70 12.3h3V3.85h-3zm-4.22 15.64c4.64-.38 6.64-1.41 6.64-3.39 0-1.33-1-2.12-2.77-2.12a22.28 22.28 0 00-6.19 1.31l-.8-1.83a35.53 35.53 0 017.26-1.24 5.76 5.76 0 012.86.66 3.63 3.63 0 011.73 3.17 4.28 4.28 0 01-2.76 4.07 16.07 16.07 0 01-5.16 1.24zm-5.58 8.33c4.5-.56 9.74-1.1 13.5-1.4l.31 2A9.34 9.34 0 0069.76 38a5.7 5.7 0 00-3 4.59c0 2.29 1.78 3.51 5.31 3.64l.09 2.23c-4.56-.06-7.55-2.29-7.55-5.64a6.75 6.75 0 013.08-5.53c-2.47.31-5.31.71-7.2 1zm6.14 21.94a8 8 0 012.66-.45c3 0 4.92 1.53 4.92 4 0 2.92-2.41 4.76-6.25 4.76-2.46 0-4.14-1.12-4.14-2.78a2.45 2.45 0 012.7-2.16 4.39 4.39 0 013.94 2.72 2.83 2.83 0 001.54-2.59c0-1.37-1.19-2.29-3-2.29-2.46 0-4.59 1.06-6.84 3.42l-1.4-1.51c2.82-2.47 4.77-4.27 7.45-6.84-1.55.25-3.19.45-5 .59l-.32-2c3.29-.16 5.78-.37 7.52-.63l1 1.39zm-.17 4.88c-.55 0-1 .31-1 .74 0 .67.79 1.06 2.09 1.06a5.91 5.91 0 001.12-.09 2.89 2.89 0 00-2.21-1.71zm2.13 7.18v3.62a25.87 25.87 0 004.22-.5l.34 1.94a29.35 29.35 0 01-4.56.49v3.89A24.47 24.47 0 0173.43 82l-1.22 1.83a27.1 27.1 0 00-3.82-2.09v.18c0 1.21-.24 1.84-.83 2.25a4.15 4.15 0 01-2.34.58c-2.41 0-4.21-1.22-4.21-2.86s1.69-2.65 4.17-2.65a10.22 10.22 0 011.16.07l-.11-9zm-2 10.81a7.15 7.15 0 00-1.42-.15c-1.26 0-2 .36-2 1s.93 1.07 2.2 1.07c.91 0 1.27-.34 1.27-1.23zm-4.48 12.85a28.18 28.18 0 016.6-1.39 3.94 3.94 0 014.15 4.23c0 3.8-2 6-6.68 7.35l-1.27-1.91a12.32 12.32 0 004-1.75 4.19 4.19 0 001.63-3.63 2.07 2.07 0 00-2-2.33 24 24 0 00-5.62 1.5zm7.76-1.86a28.11 28.11 0 00-5-1.92l1-1.86a28.84 28.84 0 015 1.91zm-9.38 17.28c4.5-.56 9.74-1.1 13.5-1.4l.31 2a9.34 9.34 0 00-4.25 1.19 5.7 5.7 0 00-3 4.59c0 2.29 1.78 3.51 5.31 3.64l.09 2.23c-4.56 0-7.55-2.29-7.55-5.64a6.72 6.72 0 013.08-5.52c-2.47.3-5.31.7-7.2 1zm11.93 5.94a12.1 12.1 0 00-1.71-2.39l1.21-.76a11.86 11.86 0 011.73 2.33zm2-1.35a12.13 12.13 0 00-1.8-2.3l1.19-.83a11.83 11.83 0 011.83 2.27zM34 4.1a9.62 9.62 0 01-1.26 2.29l-1.56-1.15A12.06 12.06 0 0033.2 0l1.95.23v.08a17.74 17.74 0 01-.45 2h4.19V4.1h-2.23v2.67h2.68v1.84H36.6a6.51 6.51 0 01-.12 1.11 24.42 24.42 0 013.28 3.19L38.5 14.8a26 26 0 00-2.5-3.08 9 9 0 01-3.35 4.63l-1.4-1.71a7.44 7.44 0 003.43-6h-3.4V6.77h3.48V4.1zM46.65 2v13.25h-1.94v-1h-2.94v1.2h-1.91V2zm-4.88 10.3h2.94V3.85h-2.94zm-8.01 17.89a55.66 55.66 0 011.13-7.35l2.07.33c-.27 1.22-.54 2.57-.9 4.55A7.38 7.38 0 0140.85 26c2.79 0 4.79 1.62 4.79 3.87a4.3 4.3 0 01-2.9 4 14.84 14.84 0 01-5.36 1l-.85-2c4.65-.18 6.79-1.1 6.79-3 0-1.2-.92-2-2.38-2a8.09 8.09 0 00-5.47 2.77zm6.77-6.72a21.27 21.27 0 00-4.81-2.3l1.08-1.73a26.06 26.06 0 014.88 2.16zM32.55 41.2h1c.61 0 1.15 0 2-.09a29.07 29.07 0 00.71-3l2.09.25c-.22 1-.4 1.71-.63 2.52a16.07 16.07 0 002.28-.4l.1 2a29.83 29.83 0 01-3 .44 29.52 29.52 0 01-3.8 7.45l-1.8-1.1a26.77 26.77 0 003.5-6.21c-.81 0-1.77.09-2.34.09zm10 2.34l.13 4.83a19 19 0 014.09 1.93l-1.16 1.76a13 13 0 00-2.88-1.71v.36c0 1.53-1 2.3-3 2.3C37.42 53 36 52 36 50.35s1.44-2.5 3.62-2.5a7.75 7.75 0 011.11.07l-.07-4.38zm-1.69 6.14a6.2 6.2 0 00-1.42-.18c-1.1 0-1.75.31-1.75.85s.85 1 2 1a1.08 1.08 0 001.19-1.19zm4.27-4.61a17.68 17.68 0 00-3.67-3.27l1.38-1.37a24.12 24.12 0 013.75 3.11zM31.78 60.84c.88-.16 2.09-.32 3.55-.5a35.91 35.91 0 00.82-3.86l2.11.36c-.22 1-.38 1.72-.77 3.3h.9a2.77 2.77 0 012.72 1.7 6.77 6.77 0 01.28 2.28 14.46 14.46 0 01-1 5.46 2 2 0 01-2 1.28 5.81 5.81 0 01-2.5-.65l.2-2.11a5.07 5.07 0 001.89.61c.27 0 .45-.14.61-.52a11.29 11.29 0 00.75-4.19c0-1.55-.32-2-1.35-2a7.18 7.18 0 00-1 .09 35.1 35.1 0 01-3.5 8.86l-1.83-1.17a38.44 38.44 0 003.17-7.42l-1.7.3c-.3.08-.55.13-.75.17h-.2zm13.34 4.45a22.15 22.15 0 00-3.8-6L43 58.18a22.25 22.25 0 014 5.88zM37.5 82.84c4.65-.38 6.65-1.4 6.65-3.38 0-1.34-1-2.13-2.77-2.13a22.14 22.14 0 00-6.2 1.32l-.79-1.84a35.42 35.42 0 017.26-1.24 5.79 5.79 0 012.86.66 3.63 3.63 0 011.73 3.17 4.27 4.27 0 01-2.76 4.07 16.14 16.14 0 01-5.16 1.24zm-5.29 9.03h3.55c.27-1 .48-2 .7-3l2.14.3c-.23 1-.28 1.19-.59 2.35v.19a20.26 20.26 0 002.61-.37l.16 2c-1 .17-2.41.33-3.35.4a74.85 74.85 0 01-3.75 10.19l-2-1a50.57 50.57 0 003.58-9.06c-.94 0-1.69.06-2.88.06zm14.32 11.36a19 19 0 01-3.44.31c-3.8 0-5.13-.92-5.51-3.8l1.87-.74c.13 1.84.94 2.41 3.38 2.41a23.15 23.15 0 003.48-.3zm-7.67-8a26.36 26.36 0 016.69-.77v2a24.61 24.61 0 00-6.46.74z"/><path d="M16.21 7h-2V3.15H3.13v-2h13.08zM5.47 12.13V24H2.12v1.41H.4V12.13zm-3.35 5h1.66v-3.2H2.12zm0 5.13h1.66v-3.4H2.12zm9.6-11.45v2.68h3.21v5.41h1.26v1.72h-4.13A9.45 9.45 0 0016.53 25l-1.3 1.87a10.53 10.53 0 01-4.3-5A7.8 7.8 0 016.3 27.2l-1.22-1.76a6.93 6.93 0 004.59-4.85H5.83v-1.72h.85v-5.41h3.17v-2.68zm-3.35 8.06h1.55v-3.71H8.37zm3.28 0h1.58v-3.71h-1.58zm4.56 12.88v1.69H9v1.61h3.46v8.15H3.69v-8.15h3.39v-1.61H0v-1.69zM2.68 35.14v9.13h10.84v-9.13h1.91v11.65h-1.91V46H2.68v.83H.77V35.14zm2.74 3.2H7.2v-1.82H5.42zm0 3.35H7.2v-1.91H5.42zm3.47-3.35h1.86v-1.82H8.89zm0 3.35h1.86v-1.91H8.89zM0 50.6h2v3.82h11.07v2H0z" fill="#968264"/><path d="M1.87 66c1.14.16 2.31.27 3.48.32.12-1 .2-1.64.36-2.92v-.27l2.09.16c-.14 1.08-.32 2.44-.38 3.05 1.23 0 2.71-.09 3.82-.2v1.94c-1.15.09-2.27.15-4 .17-.09.52-.16 1.08-.27 2.14a26.47 26.47 0 003.78-.25v2a40 40 0 01-4 .19A13.68 13.68 0 006.57 74a2.27 2.27 0 00.27 1.31c.43.81 1.19 1.15 2.5 1.15 1.9 0 2.78-.82 2.78-2.57a7.61 7.61 0 00-.34-2.32l2.14-.2a9.53 9.53 0 01.36 2.63c0 3-1.77 4.63-5 4.63s-4.78-1.48-4.78-4.3a14.41 14.41 0 01.17-2c-.72 0-1.91-.1-2.88-.23l.21-2c.92.12 2 .25 2.9.29 0-.53.13-1.23.25-2.11-1.62-.09-2.66-.18-3.49-.29zm12.64 21.68a17.65 17.65 0 00-3.33-4.05L13 82.12A20.93 20.93 0 0116.42 86zM3.15 96.35c2.52-.09 5.76-.32 8.16-.61l1 1.35c-2.09 1.86-3.46 3-4.7 4 2.1-.23 4.71-.57 6.91-.9l.22 1.95a16.38 16.38 0 00-4.92 1 3.24 3.24 0 00-2 2.92c0 1.62 1.37 2.27 4.79 2.25l.09 2.21a11.54 11.54 0 01-5-.93 3.74 3.74 0 01-2.14-3.33 4.1 4.1 0 012-3.39l-1.82.24-.72.1-1.77.24-1.62.23-.39.06-.24-1.95c.89-.07 2.36-.23 3.35-.34a41 41 0 004.52-3.74c-1.44.23-3.26.45-5.4.64zm4.75 29.58c3.77-1 5.41-2.59 5.41-5.4a4.28 4.28 0 00-2.16-3.83 4.38 4.38 0 00-1.72-.62 18.41 18.41 0 01-2.14 8.07c-1 1.82-2 2.66-3.15 2.66a3.16 3.16 0 01-2.12-1 5.32 5.32 0 01-1.59-4 7.71 7.71 0 013.77-6.41 7.75 7.75 0 014.24-1.15c4.16 0 7.22 2.72 7.22 6.41s-2.25 6.12-6.57 7.09zm-.61-9.83a5.39 5.39 0 00-2.73 1.35 5.62 5.62 0 00-2 4.3c0 1.43.72 2.83 1.46 2.83.38 0 .76-.38 1.28-1.31a18.33 18.33 0 002-6.88zM.32 133.72a35.49 35.49 0 006.83-2.25L8.3 133c-2.79 2.7-4.3 5.24-4.3 7.24a2.8 2.8 0 002.93 3c2.41 0 3.89-2.1 3.89-5.53a13.07 13.07 0 00-.9-5l2-.79a27.84 27.84 0 004.27 6l-1.52 1.78a25.1 25.1 0 01-2.3-3.94 16.92 16.92 0 01.29 2.89c0 4.18-2.16 6.7-5.75 6.7a5 5 0 01-4-1.76 4.44 4.44 0 01-.91-2.86 9 9 0 013.16-6.54 30.07 30.07 0 01-4 1.5zm13.62 29.13a37.21 37.21 0 01-5.57.49 10.24 10.24 0 01-4.12-.62 3.26 3.26 0 01-2.14-3.06 4.63 4.63 0 012.64-3.94 9.06 9.06 0 011.1-.63 48.25 48.25 0 01-1.65-5.92l2.21-.31a48.42 48.42 0 001.39 5.31 45.44 45.44 0 014.89-1.67l.92 2.07c-6.12 1.4-9.31 3.08-9.31 4.88 0 1.22 1.21 1.8 3.8 1.8a30.29 30.29 0 005.51-.58zM.49 169.92a44.91 44.91 0 018.89-1.44 6.59 6.59 0 013.82 1 4.42 4.42 0 011.8 3.72 5.29 5.29 0 01-3.31 4.8 19.22 19.22 0 01-6.45 1.55l-1-2.09a20.23 20.23 0 005.94-1.17 3.44 3.44 0 002.36-3.17c0-1.82-1.05-2.67-3.23-2.67-1.81 0-3.72.36-8 1.53z"/></svg>