<svg xmlns="http://www.w3.org/2000/svg" viewBox="0 0 75.73 179.56"><path fill="none" stroke="#000" stroke-miterlimit="10" d="M40.12 111.34v20"/><path d="M62.63 4.1a10.38 10.38 0 01-1.26 2.29L59.8 5.24a12.19 12.19 0 002-5.24l1.94.23v.08a17.74 17.74 0 01-.45 2h4.2V4.1h-2.22v2.67H68v1.84h-2.78a6.49 6.49 0 01-.13 1.11 23.28 23.28 0 013.28 3.19l-1.26 1.89a26 26 0 00-2.47-3.08 9 9 0 01-3.35 4.63l-1.4-1.71a7.47 7.47 0 003.44-6h-3.4V6.77h3.47V4.1zM75.27 2v13.25h-2v-1h-2.88v1.2h-1.91V2zm-4.88 10.3h2.93V3.85h-2.93zm-4.27 15.64c4.64-.38 6.64-1.41 6.64-3.39 0-1.33-1-2.12-2.77-2.12a22.28 22.28 0 00-6.19 1.31l-.8-1.83a35.64 35.64 0 017.26-1.24 5.76 5.76 0 012.86.66 3.63 3.63 0 011.73 3.17 4.27 4.27 0 01-2.75 4.07 16.21 16.21 0 01-5.17 1.24zm-5.58 8.33c4.5-.56 9.74-1.1 13.5-1.4l.31 2A9.42 9.42 0 0070.1 38a5.7 5.7 0 00-3 4.59c0 2.29 1.78 3.51 5.31 3.64l.09 2.23c-4.5-.04-7.5-2.27-7.5-5.62a6.74 6.74 0 013.07-5.53c-2.46.31-5.31.71-7.2 1zm6.14 21.94a8 8 0 012.63-.45c3 0 4.91 1.53 4.91 4 0 2.92-2.41 4.76-6.25 4.76-2.46 0-4.14-1.12-4.14-2.78a2.45 2.45 0 012.7-2.16 4.42 4.42 0 014 2.72A2.84 2.84 0 0072 61.71c0-1.37-1.19-2.29-3-2.29-2.47 0-4.6 1.06-6.85 3.42l-1.4-1.51c2.83-2.47 4.77-4.27 7.45-6.84-1.54.25-3.18.45-4.95.59l-.32-2c3.29-.16 5.78-.37 7.52-.63l1 1.39zm-.16 4.88c-.56 0-1 .31-1 .74 0 .67.79 1.06 2.09 1.06a5.91 5.91 0 001.12-.09c-.63-1.09-1.42-1.71-2.21-1.71zm2.12 7.18v3.62a25.88 25.88 0 004.21-.5l.34 1.94a29.34 29.34 0 01-4.55.49v3.89A24.47 24.47 0 0173.77 82l-1.22 1.83a27.1 27.1 0 00-3.82-2.09v.18c0 1.21-.23 1.84-.83 2.25a4.15 4.15 0 01-2.34.58c-2.41 0-4.21-1.22-4.21-2.86s1.69-2.65 4.18-2.65a10.19 10.19 0 011.15.07l-.11-9zM66.7 81.08a7.32 7.32 0 00-1.43-.15c-1.26 0-2 .36-2 1S64.16 83 65.42 83c.91 0 1.28-.34 1.28-1.23zm-4.54 12.85a28.13 28.13 0 016.61-1.39 3.93 3.93 0 014.14 4.23c0 3.8-2 6-6.68 7.35L65 102.21a12.35 12.35 0 004-1.75 4.2 4.2 0 001.64-3.63 2.07 2.07 0 00-2.06-2.33A24 24 0 0063 96zm7.76-1.86a28.11 28.11 0 00-5-1.92l1-1.86a28.84 28.84 0 015 1.91zm-9.38 17.28c4.5-.56 9.74-1.1 13.5-1.4l.31 2a9.42 9.42 0 00-4.25 1.19 5.7 5.7 0 00-3 4.59c0 2.29 1.78 3.51 5.31 3.64l.09 2.23c-4.56 0-7.54-2.29-7.54-5.64a6.71 6.71 0 013.07-5.52c-2.46.3-5.31.7-7.2 1zm11.94 5.94a12.55 12.55 0 00-1.72-2.39l1.21-.76a11.11 11.11 0 011.73 2.33zm2-1.35a11.37 11.37 0 00-1.8-2.3l1.19-.83a11.83 11.83 0 011.83 2.27zM34.35 4.1a9.62 9.62 0 01-1.26 2.29l-1.56-1.15a12.18 12.18 0 002-5.24l2 .23v.08a17.74 17.74 0 01-.45 2h4.19V4.1H37v2.67h2.68v1.84H37a7.67 7.67 0 01-.13 1.11 24.42 24.42 0 013.28 3.19l-1.31 1.89a26 26 0 00-2.47-3.08A9 9 0 0133 16.35l-1.4-1.71a7.47 7.47 0 003.44-6h-3.39V6.77h3.48V4.1zM47 2v13.25h-1.95v-1h-2.94v1.2h-1.9V2zm-4.89 10.3h2.94V3.85h-2.94zM34.1 30.19a55.71 55.71 0 011.14-7.35l2.07.33c-.27 1.22-.54 2.57-.9 4.55A7.36 7.36 0 0141.2 26c2.8 0 4.8 1.65 4.8 3.9a4.32 4.32 0 01-2.9 4 15 15 0 01-5.37 1l-.85-2c4.65-.18 6.79-1.1 6.79-3 0-1.2-.92-2-2.37-2a8.11 8.11 0 00-5.48 2.77zm6.77-6.72a21.27 21.27 0 00-4.81-2.3l1.08-1.73A25.78 25.78 0 0142 21.6zM32.9 41.2h1c.61 0 1.15 0 2-.09.3-1.08.5-1.89.7-3l2.09.25c-.22 1-.4 1.71-.63 2.52a16.07 16.07 0 002.25-.47l.11 2c-.89.18-2 .35-3 .44a29.83 29.83 0 01-3.79 7.45l-1.8-1.1a27.13 27.13 0 003.38-6.17c-.81 0-1.76.09-2.34.09zm10 2.34l.1 4.83a19 19 0 014.09 1.93L46 52.06a13.52 13.52 0 00-2.88-1.71v.36c0 1.53-1 2.3-3 2.3-2.36 0-3.82-1-3.82-2.66s1.44-2.5 3.62-2.5a7.75 7.75 0 011.11.07L41 43.54zm-1.7 6.14a6.14 6.14 0 00-1.42-.18c-1.1 0-1.75.31-1.75.85s.85 1 2 1a1.08 1.08 0 001.18-1.19zm4.27-4.61a17.68 17.68 0 00-3.67-3.27l1.38-1.37a24.12 24.12 0 013.75 3.11zM32.12 60.84c.88-.16 2.09-.32 3.55-.5a38.58 38.58 0 00.83-3.86l2.1.36c-.21 1-.38 1.72-.77 3.3h.9a2.77 2.77 0 012.72 1.7 6.48 6.48 0 01.29 2.28 14.26 14.26 0 01-1.05 5.46 2 2 0 01-2 1.28 5.85 5.85 0 01-2.5-.65l.2-2.11a5.07 5.07 0 001.89.61c.27 0 .45-.14.61-.52a11.29 11.29 0 00.79-4.19c0-1.55-.32-2-1.35-2a7.18 7.18 0 00-1 .09 35.52 35.52 0 01-3.49 8.86L32 69.74a38.44 38.44 0 003.17-7.42c-.54.09-1 .16-1.69.3-.31.08-.56.13-.76.17h-.2zm13.34 4.45a22.15 22.15 0 00-3.8-6l1.7-1.1a22.46 22.46 0 014 5.88zm-7.61 17.55c4.64-.38 6.64-1.4 6.64-3.38 0-1.34-1-2.13-2.77-2.13a22.14 22.14 0 00-6.2 1.32l-.79-1.84A35.42 35.42 0 0142 75.57a5.79 5.79 0 012.86.66 3.63 3.63 0 011.73 3.17 4.27 4.27 0 01-2.76 4.07 16.07 16.07 0 01-5.16 1.24zm-5.3 9.03h3.55c.27-1 .49-2 .7-3l2.15.3c-.24 1-.29 1.19-.6 2.35l-.05.19a20.26 20.26 0 002.61-.37l.16 2c-1 .17-2.41.33-3.35.4A76.26 76.26 0 0134 103.9l-2-1a50.57 50.57 0 003.58-9.06c-.93 0-1.69.06-2.88.06zm14.32 11.36a19 19 0 01-3.44.31c-3.8 0-5.13-.92-5.51-3.8l1.87-.74c.13 1.84.94 2.41 3.39 2.41a23.13 23.13 0 003.47-.3zm-7.67-8a26.44 26.44 0 016.7-.77v2a24.64 24.64 0 00-6.47.74z"/><path d="M16.55 7h-2V3.15H3.47v-2h13.08zM9.38 18.54v1.08h7.08v1.59h-2.13l1.32.81a23.63 23.63 0 01-2.74 1.89 15.33 15.33 0 003.67 1.28l-1.28 1.72c-3.51-1.11-5.76-2.91-7-5.63a10.53 10.53 0 01-1.64 1.11v2.4a34.41 34.41 0 003.4-.63l.06 1.53A64.48 64.48 0 012.72 27l-.56-1.69c.9-.09 2-.22 2.58-.29V23.4A23.55 23.55 0 011 24.74l-1-1.57a20.72 20.72 0 005.87-2H.43v-1.55h6.93v-1.08zm-3.53-7.76v8.07H3.91v-2.2a27 27 0 01-2.6 1.66l-1-1.68a25.8 25.8 0 003.57-1.71v-4.14zM2.27 15a12.65 12.65 0 00-1.51-2.65l1.54-.9A11.83 11.83 0 013.83 14zm10.08-4.21v2.16h3.93v1.51h-3.93v2h3.53V18H7v-1.53h3.34v-2H6.61v-1.53h3.72v-2.16zm-2.29 10.42a6.05 6.05 0 001.5 1.79 14.66 14.66 0 002.23-1.81zM16 32v2.13h-6V44.5c0 1.39-.57 1.87-2.25 1.87-1 0-2.2 0-3.26-.14L4 43.87a18.51 18.51 0 003 .32c.49 0 .65-.14.65-.57v-9.47H.88V32zM.34 50.6h2v3.82h11.07v2H.34z" fill="#e64628"/><path d="M2.21 66c1.14.16 2.31.27 3.48.32.13-1 .2-1.64.36-2.92v-.27l2.09.16c-.14 1.11-.29 2.47-.34 3.08 1.22 0 2.7-.09 3.81-.2v1.94c-1.15.09-2.27.15-4 .17-.09.52-.16 1.08-.27 2.14a26.47 26.47 0 003.78-.25v2a40 40 0 01-4 .19A13.68 13.68 0 006.91 74a2.27 2.27 0 00.27 1.31c.44.81 1.19 1.15 2.51 1.15 1.89 0 2.77-.82 2.77-2.57a7.61 7.61 0 00-.34-2.32l2.14-.2a9.53 9.53 0 01.36 2.63c0 3-1.76 4.63-5 4.63s-4.77-1.48-4.77-4.3a14.09 14.09 0 01.16-2c-.72 0-1.91-.1-2.88-.23l.21-2c.92.12 2 .25 2.9.29 0-.53.13-1.23.26-2.11-1.67-.13-2.71-.22-3.5-.28zm12.64 21.68a17.39 17.39 0 00-3.33-4.05l1.79-1.51A20.89 20.89 0 0116.76 86zM3.49 96.35c2.52-.09 5.76-.32 8.16-.61l1 1.35c-2.09 1.86-3.46 3-4.7 4 2.1-.23 4.72-.57 6.91-.9l.22 1.95a16.38 16.38 0 00-4.92 1 3.24 3.24 0 00-2 2.92c0 1.62 1.37 2.27 4.79 2.25l.09 2.21a11.49 11.49 0 01-4.95-.93 3.74 3.74 0 01-2.15-3.33 4.1 4.1 0 012-3.39l-1.82.24-.72.1-1.76.24-1.64.23-.4.06-.23-1.95c.88-.07 2.36-.23 3.35-.34a41.71 41.71 0 004.51-3.74c-1.44.23-3.25.45-5.4.64zm4.76 29.58c3.76-1 5.4-2.59 5.4-5.4a4.26 4.26 0 00-2.16-3.83 4.34 4.34 0 00-1.71-.62 18.55 18.55 0 01-2.15 8.07c-1 1.82-2 2.66-3.15 2.66a3.16 3.16 0 01-2.12-1 5.32 5.32 0 01-1.59-4 7.73 7.73 0 013.77-6.46 7.76 7.76 0 014.25-1.15c4.21.05 7.21 2.8 7.21 6.46s-2.25 6.12-6.58 7.09zm-.62-9.83a5.43 5.43 0 00-2.73 1.35 5.62 5.62 0 00-2 4.3c0 1.43.72 2.83 1.46 2.83.38 0 .76-.38 1.28-1.31a18.33 18.33 0 002-6.88zM.67 133.72a35.41 35.41 0 006.82-2.25L8.64 133c-2.79 2.7-4.3 5.24-4.3 7.24a2.8 2.8 0 002.93 3c2.42 0 3.89-2.1 3.89-5.53a13.07 13.07 0 00-.9-5l2-.79a27.84 27.84 0 004.27 6l-1.53 1.8a25.11 25.11 0 01-2.31-3.94 16.92 16.92 0 01.29 2.89c0 4.18-2.16 6.7-5.74 6.7a5.05 5.05 0 01-4-1.76 4.43 4.43 0 01-.91-2.88 9 9 0 013.15-6.54 30.07 30.07 0 01-4 1.5zm13.61 29.13a37.21 37.21 0 01-5.57.49 10.24 10.24 0 01-4.12-.62 3.26 3.26 0 01-2.14-3.06 4.63 4.63 0 012.64-3.94 9.91 9.91 0 011.1-.63 48.25 48.25 0 01-1.65-5.92l2.21-.31a48.42 48.42 0 001.39 5.31A45.66 45.66 0 0113 152.5l.91 2.07c-6.12 1.4-9.31 3.08-9.31 4.88 0 1.22 1.21 1.8 3.8 1.8a30.29 30.29 0 005.51-.58zM.83 169.92a44.91 44.91 0 018.89-1.44 6.56 6.56 0 013.82 1 4.42 4.42 0 011.78 3.75A5.29 5.29 0 0112 178a19.22 19.22 0 01-6.45 1.55l-1-2.09a20.15 20.15 0 005.94-1.17 3.44 3.44 0 002.36-3.17c0-1.82-1-2.67-3.22-2.67-1.82 0-3.73.36-8 1.53z"/></svg>