<svg xmlns="http://www.w3.org/2000/svg" viewBox="0 0 75.77 199.36"><path fill="none" stroke="#000" stroke-miterlimit="10" d="M40.15 111.34v20"/><path d="M62.66 4.1a9.62 9.62 0 01-1.26 2.29l-1.56-1.15a12.18 12.18 0 002-5.24l1.96.23v.08a17.74 17.74 0 01-.45 2h4.19V4.1h-2.23v2.67H68v1.84h-2.75a6.51 6.51 0 01-.12 1.11 24.42 24.42 0 013.28 3.19l-1.26 1.89a26 26 0 00-2.47-3.08 9 9 0 01-3.35 4.63l-1.4-1.71a7.44 7.44 0 003.43-6H60V6.77h3.48V4.1zM75.3 2v13.25h-1.94v-1h-2.94v1.2h-1.91V2zm-4.88 10.3h2.94V3.85h-2.94zm-4.26 15.64c4.64-.38 6.64-1.41 6.64-3.39 0-1.33-1-2.12-2.77-2.12a22.4 22.4 0 00-6.2 1.31L63 21.91a35.42 35.42 0 017.26-1.24 5.79 5.79 0 012.86.66 3.63 3.63 0 011.73 3.17 4.28 4.28 0 01-2.76 4.07A16.14 16.14 0 0167 29.81zm-5.59 8.33c4.51-.56 9.74-1.1 13.51-1.4l.3 2A9.42 9.42 0 0070.13 38a5.72 5.72 0 00-3 4.59c0 2.29 1.79 3.51 5.32 3.64l.09 2.23C68 48.42 65 46.19 65 42.84a6.73 6.73 0 013.08-5.53c-2.47.31-5.31.71-7.2 1zm6.14 21.94a8 8 0 012.63-.45c3 0 4.92 1.53 4.92 4 0 2.92-2.42 4.76-6.25 4.76-2.47 0-4.14-1.12-4.14-2.78a2.45 2.45 0 012.7-2.16 4.39 4.39 0 013.94 2.72A2.82 2.82 0 0072 61.71c0-1.37-1.19-2.29-3-2.29-2.46 0-4.59 1.06-6.84 3.42l-1.4-1.51c2.82-2.47 4.77-4.27 7.45-6.84-1.55.25-3.19.45-5 .59l-.33-2c3.3-.16 5.78-.37 7.53-.63l1 1.39zm-.16 4.88c-.56 0-1 .31-1 .74 0 .67.79 1.06 2.09 1.06a5.81 5.81 0 001.11-.09 2.88 2.88 0 00-2.2-1.71zm2.13 7.18v3.62a25.87 25.87 0 004.22-.5l.34 1.94a29.48 29.48 0 01-4.56.49v3.89A24.47 24.47 0 0173.81 82l-1.23 1.83a27.07 27.07 0 00-3.81-2.09v.18c0 1.21-.24 1.84-.83 2.25a4.15 4.15 0 01-2.34.58c-2.42 0-4.22-1.22-4.22-2.86s1.7-2.65 4.18-2.65a10.19 10.19 0 011.15.07l-.1-9zm-2 10.81a7.15 7.15 0 00-1.42-.15c-1.26 0-2 .36-2 1S64.19 83 65.45 83c.92 0 1.28-.34 1.28-1.23zm-4.49 12.85a28.32 28.32 0 016.61-1.39 3.93 3.93 0 014.14 4.23c0 3.8-2 6-6.68 7.35L65 102.21a12.15 12.15 0 004-1.75 4.17 4.17 0 001.64-3.63 2.07 2.07 0 00-2-2.33A24.18 24.18 0 0063 96zM70 92.07a28 28 0 00-5-1.92l1-1.86a28.84 28.84 0 015 1.91zm-9.43 17.28c4.51-.56 9.74-1.1 13.51-1.4l.3 2a9.42 9.42 0 00-4.25 1.19 5.72 5.72 0 00-3 4.59c0 2.29 1.79 3.51 5.32 3.64l.09 2.23c-4.56 0-7.55-2.29-7.55-5.64a6.7 6.7 0 013.08-5.52c-2.47.3-5.31.7-7.2 1zm11.94 5.94a12.52 12.52 0 00-1.71-2.39l1.21-.76a11.86 11.86 0 011.73 2.33zm2-1.35a12.13 12.13 0 00-1.8-2.3l1.18-.83a11.51 11.51 0 011.84 2.27zM34.39 4.1a9.62 9.62 0 01-1.26 2.29l-1.57-1.15a12.19 12.19 0 002-5.24l1.94.23v.08c-.18 1-.26 1.26-.45 2h4.19V4.1H37v2.67h2.68v1.84H37a7.7 7.7 0 01-.12 1.11 23.72 23.72 0 013.27 3.19l-1.28 1.89a25 25 0 00-2.46-3.08 9.12 9.12 0 01-3.35 4.63l-1.41-1.71a7.45 7.45 0 003.44-6h-3.4V6.77h3.47V4.1zM47 2v13.25h-2v-1h-2.85v1.2h-1.91V2zm-4.85 10.3h2.93V3.85h-2.93zm-8.01 17.89a55.66 55.66 0 011.13-7.35l2.07.33c-.27 1.22-.54 2.57-.9 4.55A7.38 7.38 0 0141.23 26C44 26 46 27.65 46 29.9a4.3 4.3 0 01-2.9 4 14.89 14.89 0 01-5.36 1l-.85-2c4.65-.18 6.79-1.1 6.79-3 0-1.2-.92-2-2.38-2a8.09 8.09 0 00-5.47 2.77zm6.77-6.72a21.27 21.27 0 00-4.81-2.3l1.08-1.73a26.06 26.06 0 014.88 2.16zM32.93 41.2h1c.61 0 1.15 0 2-.09a26.59 26.59 0 00.7-3l2.09.25c-.21 1-.39 1.71-.63 2.52a15.5 15.5 0 002.25-.47l.11 2a29.83 29.83 0 01-3 .44 29.52 29.52 0 01-3.8 7.45l-1.8-1.1a26.77 26.77 0 003.39-6.17c-.81 0-1.77.09-2.34.09zm10 2.34l.13 4.83a19 19 0 014.09 1.93L46 52.06a13.28 13.28 0 00-2.88-1.71v.36c0 1.53-1 2.3-3 2.3-2.36 0-3.82-1-3.82-2.66s1.44-2.5 3.62-2.5a7.8 7.8 0 011.12.07L41 43.54zm-1.69 6.14a6.27 6.27 0 00-1.42-.18c-1.1 0-1.75.31-1.75.85s.85 1 2 1a1.08 1.08 0 001.19-1.19zm4.27-4.61a17.47 17.47 0 00-3.68-3.27l1.39-1.37A24.12 24.12 0 0147 43.54zM32.16 60.84c.88-.16 2.09-.32 3.54-.5a36 36 0 00.83-3.86l2.11.36c-.22 1-.38 1.72-.77 3.3h.9a2.75 2.75 0 012.71 1.7 6.48 6.48 0 01.29 2.28 14.46 14.46 0 01-1 5.46 2 2 0 01-2 1.28 5.81 5.81 0 01-2.5-.65l.19-2.11a5.16 5.16 0 001.9.61c.26 0 .45-.14.61-.52a11.29 11.29 0 00.75-4.19c0-1.55-.32-2-1.35-2a7.31 7.31 0 00-1 .09 34.76 34.76 0 01-3.49 8.86L32 69.74a38.36 38.36 0 003.16-7.42l-1.69.3c-.3.08-.56.13-.76.17h-.19zm13.34 4.45a22.39 22.39 0 00-3.8-6l1.69-1.1a22.25 22.25 0 014 5.88zm-7.62 17.55c4.65-.38 6.65-1.4 6.65-3.38 0-1.34-1.05-2.13-2.78-2.13a22.15 22.15 0 00-6.19 1.32l-.79-1.84A35.46 35.46 0 0142 75.57a5.8 5.8 0 012.87.66 3.63 3.63 0 011.73 3.17 4.27 4.27 0 01-2.76 4.07 16.21 16.21 0 01-5.17 1.24zm-5.29 9.03h3.55c.27-1 .48-2 .7-3l2.14.3c-.23 1-.29 1.19-.59 2.35l-.06.19a20.26 20.26 0 002.61-.37l.17 2c-1 .17-2.42.33-3.35.4A76.21 76.21 0 0134 103.9l-2-1a52.12 52.12 0 003.58-9.06c-.94 0-1.69.06-2.88.06zm14.31 11.36a18.81 18.81 0 01-3.44.31c-3.79 0-5.13-.92-5.5-3.8l1.87-.74c.12 1.84.93 2.41 3.38 2.41a23.26 23.26 0 003.48-.3zm-7.67-8a26.49 26.49 0 016.7-.77v2a24.61 24.61 0 00-6.46.74z"/><path d="M16.58 7h-2V3.15H3.51v-2h13.07zM2 19a20.85 20.85 0 01-1.21 1.79L0 18.67a23.77 23.77 0 003.31-7.94l1.91.47a33.29 33.29 0 01-1.41 4.23V27H2zm5.93-7v8.7c1.08-.44 2.21-1 3.06-1.41l.25 1.8a42.57 42.57 0 01-6.12 2.9L4.3 22c.36-.09.74-.22 1.55-.5h.13v-9.44zm7.07-.52v2.22c0 4.09-.27 6.12-1 7.83a28.44 28.44 0 012.88 3l-1.35 2A27.25 27.25 0 0013 23.28 11.72 11.72 0 018.12 27l-1.31-1.74c2.73-1 4.78-2.76 5.54-4.72.54-1.37.74-3 .74-6.32v-2.74zm-4.46 5.71a19.79 19.79 0 00-2.2-3.64L10 12.42a22 22 0 012.27 3.49zM5.46 30.58v1.62h2.66v1.59H6l1.33.45a16.13 16.13 0 01-.79 2h2v1.58h-2l.84.53A8.49 8.49 0 013.6 41.2l-.88-1.26a6.83 6.83 0 003.11-2.07H2.61v1.28c0 4.05-.27 5.71-1.19 7.53L0 45.2c.68-1.33.88-2.7.88-6.05v-2.86h1.57a8.41 8.41 0 00-.7-2l1.46-.45H.58V32.2h3v-1.62zm-3 14.6a9.06 9.06 0 005-3.15l1.27.97a10.25 10.25 0 01-5.33 3.7zm.32-2.82a7.77 7.77 0 004.09-2.67l1.26.85a9.35 9.35 0 01-4.41 3.22zM5 36.29a13.24 13.24 0 00.74-2.5H3.28a8.72 8.72 0 01.77 2.09l-1.13.41zm11.56-5.15v1.66h-3.27a11 11 0 01-.49 1.36h3v9.26h-1.54a15.85 15.85 0 012.65 2l-1.43 1.3a13.18 13.18 0 00-2.88-2.58l1.08-.77h-2.86l1.21.86a14.28 14.28 0 01-3.24 2.81l-1.37-1.4a9.41 9.41 0 003.11-2.27H9.18v-9.21h2v-.07l.09-.38c0-.16 0-.23.18-.79v-.12H8.43v-1.66zm-5.63 5.73h3.27V35.6h-3.32zm0 2.52h3.27v-1.26h-3.32zm0 2.59h3.27v-1.33h-3.32zM3.06 59.46c-.54 0-1.1.09-2.21.16h-.2l-.43-1.8h1.47l.09-.09.27-.36a6.54 6.54 0 00.47-.56l.2-.25A18.91 18.91 0 00.5 53.88l1.07-1.37.23.25c.14.14.2.21.38.41a17.08 17.08 0 001.57-2.86l1.69.86a26.84 26.84 0 01-2.29 3.17l.06.08c.34.45.35.46.57.77.77-1.1 1.37-2 1.86-2.79l1.51.93a37.87 37.87 0 01-3.51 4.43c.28 0 .45 0 1.62-.09h.12a12.69 12.69 0 00-.5-1.23l1.26-.5a15.13 15.13 0 011.31 3.4l-1.4.66v-.32c-.06-.2-.07-.31-.15-.58a6.52 6.52 0 01-.9.15h-.14v7.31h-1.8zm-2.81 5.2a17.55 17.55 0 00.69-4.23l1.58.21a20.21 20.21 0 01-.68 4.85zm5.89-.54a14.68 14.68 0 00-.95-3.35l1.4-.54a15.1 15.1 0 011.13 3.06zm3.53-7.45a9.79 9.79 0 01-1.8 1.92l-1.14-1.53a12.19 12.19 0 003.73-6.26h2.07a15.16 15.16 0 004.41 5.83l-1.08 1.85a19.38 19.38 0 01-2-2.12v1.28H9.67zm6.61 2.43v1.72h-4.34c-.6 1.73-.81 2.29-1.21 3.19.72-.05 1.82-.2 2.76-.34l-.08-.13c-.48-.93-.61-1.15-.86-1.56l1.55-.69a31.31 31.31 0 012.41 4.22l-1.71 1.06v-.09c-.19-.47-.3-.72-.3-.74s-.13-.27-.25-.56a60.15 60.15 0 01-6.29 1.1l-.52-2c.38 0 1 0 1.37-.11a23.82 23.82 0 001.17-3.37H7.65v-1.7zm-2.7-3.1a19 19 0 01-2-3.08A12.33 12.33 0 0110.17 56zM.38 70.4h2v3.82h11.07v2H.38z" fill="#f08ca0"/><path d="M2.25 85.83c1.13.16 2.3.27 3.48.32.12-1 .19-1.64.36-2.92v-.27l2.09.16c-.14 1.08-.32 2.44-.38 3 1.23 0 2.7-.09 3.82-.2v1.94c-1.15.09-2.27.15-4.05.17-.09.52-.16 1.08-.27 2.14a26.57 26.57 0 003.81-.17v2a37.28 37.28 0 01-4 .2A13.68 13.68 0 007 93.84a2.19 2.19 0 00.27 1.31c.43.81 1.19 1.15 2.5 1.15 1.89 0 2.78-.82 2.78-2.57a7.32 7.32 0 00-.35-2.32l2.15-.2a9.53 9.53 0 01.36 2.57c0 3-1.77 4.63-5.05 4.63-3.13 0-4.77-1.48-4.77-4.3a15.7 15.7 0 01.16-2c-.71 0-1.9-.11-2.88-.23l.22-2c.92.12 2 .25 2.9.29 0-.53.13-1.23.25-2.11-1.67-.06-2.71-.2-3.54-.31zm12.64 21.65a17.65 17.65 0 00-3.33-4l1.78-1.51a21.3 21.3 0 013.46 3.87zm-11.36 8.67c2.52-.09 5.76-.32 8.16-.61l1 1.35c-2.09 1.86-3.45 3-4.7 4 2.11-.23 4.72-.57 6.92-.9l.21 2a16.37 16.37 0 00-4.91 1 3.25 3.25 0 00-2 2.92c0 1.62 1.37 2.27 4.79 2.25l.09 2.21a11.49 11.49 0 01-5-.93A3.74 3.74 0 016 126.06a4.1 4.1 0 012-3.39l-1.82.24-.72.1-1.77.24-1.62.23-.39.06-.24-2c.88-.07 2.36-.23 3.35-.34a40.75 40.75 0 004.52-3.75c-1.44.24-3.26.46-5.4.65zm4.75 29.58c3.76-.95 5.4-2.59 5.4-5.4a4.26 4.26 0 00-2.16-3.83 4.5 4.5 0 00-1.71-.62A18.41 18.41 0 017.67 144c-1 1.82-2 2.66-3.15 2.66a3.2 3.2 0 01-2.13-1 5.36 5.36 0 01-1.58-4 7.72 7.72 0 013.76-6.46 7.81 7.81 0 014.25-1.15c4.16 0 7.22 2.72 7.22 6.41s-2.25 6.12-6.57 7.09zm-.61-9.83a5.42 5.42 0 00-2.74 1.35 5.65 5.65 0 00-2 4.31c0 1.42.72 2.82 1.46 2.82.38 0 .75-.38 1.28-1.31a18.34 18.34 0 002-6.88zM.7 153.52a35.49 35.49 0 006.83-2.25l1.15 1.55c-2.79 2.7-4.3 5.24-4.3 7.24a2.8 2.8 0 002.93 3c2.41 0 3.89-2.1 3.89-5.52a13.08 13.08 0 00-.9-5.05l2-.79a28.17 28.17 0 004.26 6l-1.51 1.78a25.1 25.1 0 01-2.3-3.94 16.93 16.93 0 01.29 2.9c0 4.17-2.16 6.69-5.75 6.69a5 5 0 01-4-1.76 4.44 4.44 0 01-.92-2.88A9 9 0 015.56 154a29.49 29.49 0 01-4 1.5zm13.61 29.13a37.09 37.09 0 01-5.56.49 10.24 10.24 0 01-4.12-.62 3.27 3.27 0 01-2.15-3.06 4.64 4.64 0 012.65-3.94 9.06 9.06 0 011.1-.63A50.15 50.15 0 014.57 169l2.22-.31A47.66 47.66 0 008.17 174a46.43 46.43 0 014.9-1.67l.92 2.07c-6.12 1.4-9.31 3.08-9.31 4.88 0 1.22 1.21 1.8 3.8 1.8a30.29 30.29 0 005.51-.58zM.86 189.72a45.08 45.08 0 018.9-1.44 6.59 6.59 0 013.82 1 4.42 4.42 0 011.78 3.72 5.29 5.29 0 01-3.3 4.81 19.15 19.15 0 01-6.44 1.55l-1-2.09a20.23 20.23 0 005.94-1.17 3.46 3.46 0 002.44-3.17c0-1.82-1-2.67-3.23-2.67-1.82 0-3.72.36-8 1.53z"/></svg>