<svg xmlns="http://www.w3.org/2000/svg" viewBox="0 0 58.31 177.03"><path fill="none" stroke="#000" stroke-miterlimit="10" d="M11.01 147.03v30"/><path d="M40.84 5.47a13 13 0 01-1.68 3.05L37.07 7a16.2 16.2 0 002.69-7l2.59.31v.1A24.8 24.8 0 0141.73 3h5.59v2.47h-3V9h3.57v2.45h-3.6a10 10 0 01-.16 1.55 31.16 31.16 0 014.37 4.25l-1.68 2.52a33.54 33.54 0 00-3.29-4.1 12 12 0 01-4.47 6.16l-1.87-2.28a10 10 0 004.59-8h-4.54V9h4.63V5.47zm16.85-2.83v17.69H55.1v-1.39h-3.92v1.61h-2.54V2.64zm-6.51 13.75h3.92V5.14h-3.92zM45.5 37.25c6.19-.5 8.85-1.87 8.85-4.51 0-1.78-1.39-2.84-3.69-2.84a29.93 29.93 0 00-8.26 1.76l-1.06-2.45A47.17 47.17 0 0151 27.55a7.61 7.61 0 013.81.89 4.84 4.84 0 012.31 4.23 5.69 5.69 0 01-3.68 5.42 21.56 21.56 0 01-6.88 1.66zm-7.45 11.11c6-.74 13-1.46 18-1.87l.4 2.62a12.6 12.6 0 00-5.66 1.58c-2.42 1.49-4 3.84-4 6.12 0 3 2.38 4.68 7.08 4.85l.12 3C48 64.56 44 61.59 44 57.12a9 9 0 014.11-7.37c-3.29.41-7.08.94-9.6 1.37zm8.19 29.26a10.39 10.39 0 013.5-.6c4 0 6.56 2 6.56 5.33 0 3.88-3.22 6.33-8.33 6.33-3.29 0-5.52-1.49-5.52-3.69 0-1.64 1.58-2.88 3.6-2.88 2.21 0 4 1.22 5.25 3.62a3.74 3.74 0 002-3.46c0-1.82-1.58-3-4-3-3.28 0-6.12 1.41-9.12 4.56l-1.87-2c3.77-3.29 6.36-5.69 9.94-9.12-2.07.34-4.25.6-6.6.79l-.44-2.66c4.4-.22 7.71-.51 10-.84l1.37 1.85zm-.24 6.5c-.74 0-1.29.41-1.29 1 0 .88 1.05 1.41 2.78 1.41A8.39 8.39 0 0049 86.4c-.86-1.46-1.92-2.28-3-2.28zm2.86 9.58v4.82a34 34 0 005.62-.67l.46 2.59a37.39 37.39 0 01-6.08.65l.05 5.18a32.49 32.49 0 016.75 3l-1.64 2.45A36.14 36.14 0 0049 109v.24c0 1.61-.32 2.45-1.11 3a5.49 5.49 0 01-3.12.77c-3.21 0-5.62-1.63-5.62-3.82s2.26-3.52 5.57-3.52a12.8 12.8 0 011.54.09l-.14-12zm-2.6 14.4a9.2 9.2 0 00-1.89-.19c-1.68 0-2.69.48-2.69 1.27s1.2 1.41 2.88 1.41c1.22 0 1.7-.45 1.7-1.63zm-6.05 17.13c4.64-1.32 7.21-1.84 8.81-1.84a5.24 5.24 0 015.52 5.61c0 5.06-2.66 8-8.9 9.79L44 136.27a16.45 16.45 0 005.24-2.27 5.59 5.59 0 002.18-4.85c0-1.87-1.08-3.1-2.73-3.1-1 0-3.34.63-7.4 2zm10.35-2.47a38.78 38.78 0 00-6.65-2.57l1.3-2.47a38.49 38.49 0 016.72 2.55zM38.05 145.8c6-.74 13-1.46 18-1.87l.4 2.62a12.6 12.6 0 00-5.66 1.58c-2.42 1.49-4 3.84-4 6.12 0 3.05 2.38 4.68 7.08 4.85l.12 3C48 162 44 159 44 154.56a9 9 0 014.11-7.37c-3.29.41-7.08.94-9.6 1.37zM54 153.72a16.72 16.72 0 00-2.28-3.19l1.61-1a15.14 15.14 0 012.3 3.1zm2.71-1.8a15 15 0 00-2.4-3.07l1.58-1.1a15.21 15.21 0 012.45 3zM3.77 5.47a13 13 0 01-1.68 3.05L0 7a16.2 16.2 0 002.69-7l2.59.31v.1A24.8 24.8 0 014.66 3h5.59v2.47H7.3V9h3.57v2.45H7.22A10 10 0 017.06 13a31.16 31.16 0 014.37 4.25l-1.68 2.48a33.54 33.54 0 00-3.29-4.1A12 12 0 012 21.79L.12 19.51a10 10 0 004.59-8H.17V9H4.8V5.47zm16.85-2.83v17.69H18v-1.39h-3.89v1.61h-2.54V2.64zm-6.51 13.75H18V5.14h-3.89zM3.43 40.25a74.9 74.9 0 011.51-9.79l2.77.43C7.34 32.52 7 34.32 6.5 37a9.83 9.83 0 016.39-2.26c3.72 0 6.38 2.16 6.38 5.16 0 2.31-1.39 4.2-3.86 5.29a20.09 20.09 0 01-7.15 1.29l-1.13-2.73c6.19-.24 9.05-1.46 9.05-3.93 0-1.61-1.23-2.62-3.17-2.62a10.78 10.78 0 00-7.3 3.7zm9-8.95a29.11 29.11 0 00-6.41-3.08l1.44-2.3A34.17 34.17 0 0114 28.8zM1.82 54.94c.56 0 .94.05 1.37.05.82 0 1.54 0 2.72-.12a40 40 0 00.93-4l2.78.34c-.28 1.3-.52 2.28-.83 3.36a22.51 22.51 0 003-.62l.14 2.61c-1.18.24-2.69.46-4 .58a39.57 39.57 0 01-5.03 9.97L.5 65.64A35.71 35.71 0 005 57.41c-1.08.07-2.35.12-3.12.12zm13.35 3.12l.17 6.43a25.73 25.73 0 015.45 2.57l-1.54 2.35a17.24 17.24 0 00-3.84-2.28v.48c0 2-1.32 3.07-4 3.07-3.15 0-5.09-1.37-5.09-3.55 0-2 1.92-3.34 4.83-3.34a12.22 12.22 0 011.48.1l-.09-5.83zm-2.26 8.18A7.71 7.71 0 0011 66c-1.47 0-2.33.41-2.33 1.13s1.13 1.3 2.64 1.3a1.44 1.44 0 001.58-1.59zm5.69-6.14a23.36 23.36 0 00-4.89-4.37l1.84-1.82a31.85 31.85 0 015 4.15zM.79 81.12c1.18-.21 2.79-.43 4.73-.67a48.68 48.68 0 001.1-5.14l2.81.48c-.28 1.35-.5 2.28-1 4.4h1.2a3.7 3.7 0 013.63 2.25 8.93 8.93 0 01.38 3 19.12 19.12 0 01-1.39 7.27 2.62 2.62 0 01-2.67 1.71 7.65 7.65 0 01-3.33-.87l.26-2.8a6.83 6.83 0 002.49.81c.36 0 .6-.19.82-.69a15.24 15.24 0 001-5.55c0-2.06-.43-2.71-1.8-2.71a11.35 11.35 0 00-1.39.12A46.15 46.15 0 013 94.54L.58 93a51.21 51.21 0 004.22-9.91c-.72.12-1.27.22-2.26.41-.4.09-.74.17-1 .21l-.27.05zm17.79 5.93a30 30 0 00-5.07-8l2.26-1.46a29.86 29.86 0 015.38 7.85zm-10.16 23.4c6.2-.5 8.86-1.87 8.86-4.51 0-1.78-1.39-2.83-3.69-2.83a29.82 29.82 0 00-8.26 1.75l-1.06-2.45a47.88 47.88 0 019.73-1.66 7.72 7.72 0 013.81.89 4.84 4.84 0 012.31 4.23 5.69 5.69 0 01-3.68 5.42A21.55 21.55 0 019.5 113zM1.37 122.5h1.82c1.06 0 1.83 0 2.91-.07.36-1.39.65-2.62.93-4l2.86.4c-.31 1.3-.39 1.59-.79 3.12l-.07.27a24.69 24.69 0 003.48-.51l.21 2.67c-1.27.21-3.22.43-4.46.53a100.47 100.47 0 01-5 13.58l-2.68-1.28a68.49 68.49 0 004.77-12.07c-1.25 0-2.25.07-3.84.07zm19.08 15.14a24.85 24.85 0 01-4.58.41c-5.07 0-6.84-1.22-7.35-5.06l2.5-1c.17 2.45 1.25 3.21 4.51 3.21a30.51 30.51 0 004.63-.41zM10.23 127a35.49 35.49 0 018.92-1v2.64a33.38 33.38 0 00-8.61 1z"/></svg>