<svg xmlns="http://www.w3.org/2000/svg" viewBox="0 0 177.35 32"><defs><style>.cls-1{fill:#221815;}</style></defs><g id="レイヤー_2" data-name="レイヤー 2"><g id="レイヤー_1-2" data-name="レイヤー 1"><path class="cls-1" d="M21.09,24.43V7.78h5.74V24.43Zm0,3.73h5.74v2.47h3.8V4.12H17.36V30.63h3.73ZM6.51,13.31A25.87,25.87,0,0,1,0,23l2.29,3.66A32.79,32.79,0,0,0,6.9,19V31.68h3.8v-12a38.34,38.34,0,0,1,3.35,4l2.11-3.81a30.6,30.6,0,0,0-5.46-4.11V13.31h5.46V9.72H10.7V5.28a42.43,42.43,0,0,0,5-1.3L13.45.6A50.85,50.85,0,0,1,.84,3.31L2.36,6.55C4.61,6.3,5.63,6.16,6.9,6V9.72H.67v3.59Z"/><path class="cls-1" d="M74.55,17.19V24.8H67V17.19Zm0-10.59v7.11H67V6.6ZM55.7,13.71V6.6h7.36v7.11Zm0,11.09V17.19h7.36V24.8Zm0,3.63H74.55v2.34h4V3H51.72V30.77h4Z"/><path class="cls-1" d="M129.08,4.4A21.9,21.9,0,0,0,126.41.14l-2.92,1.44A22.49,22.49,0,0,1,126,6ZM100,15.07v2.81h8.73V15.07Zm0-4.51v2.82h8.73V10.56ZM98.53,5.77v3.1H109.9V5.77ZM100,1.06V4h8.73V1.06Zm2.71,26.15v-4.5h3.38v4.5ZM118,31.75a25.62,25.62,0,0,0,5.18-5.56c1.44,3,3.48,5.21,4.71,5.21,1.38,0,2.36-2.46,3-7.64l-2.75-1.93c-.32,2.92-.6,4.22-.92,4.22s-1.09-1.37-1.9-3.34a46.36,46.36,0,0,0,4-9.72l-3.21-1.3a45.34,45.34,0,0,1-2,6.16,71.34,71.34,0,0,1-.88-8.31H130V6.16h-7C123,3.56,123,2.78,123,0H119.4c0,2.82.07,3.73.18,6.34h-8.8v8.52c0,7.35-.42,11-1.59,13.44V19.82H99.41V31.68h3.31V30.17h6.47v-.81L111.55,32c1.94-3.77,2.5-7.32,2.61-15.56h2.43c-.25,5.88-.25,5.95-1.23,5.95a3.27,3.27,0,0,1-1.27-.21l.63,3.41a9.32,9.32,0,0,0,1.83.14,2.14,2.14,0,0,0,2.5-1.93c.39-1.59.57-5.07.57-10.46h-5.46V9.72h5.6a55.65,55.65,0,0,0,1.93,12.67,20.82,20.82,0,0,1-6.09,6.44Z"/><path class="cls-1" d="M160.86,15.12h4.86v2.55h-4.86Zm-8,0h4.45v2.55h-4.48c0-.93,0-1,0-1.45Zm8-5.21h4.86v2.45h-4.86Zm-8,0h4.45v2.45h-4.45Zm0-5.42h18.28V7.15H152.89Zm18.77,16a32.21,32.21,0,0,1-3.21,3.35,12.39,12.39,0,0,1-2.69-3.35Zm.31,0h4.86V17.67h-7.59V15.12h6.07V12.36h-6.07V9.91h5.59V1.59h-25.6V15.36c0,5.86-.86,9.62-3,13.11l3.21,3c1.76-2.7,2.86-6.39,3.27-10.94h2.9v6.93c-1.45.21-2,.28-3.59.45l1,3.56a124.79,124.79,0,0,0,12.25-2.52l-.17-3.18c-1.8.38-3.93.8-5.76,1.11V20.5h2.76l0,.1c2.17,5.28,6.11,8.49,13,10.66L177.35,28A23.52,23.52,0,0,1,171,25.64a37,37,0,0,0,4-3.14Z"/></g></g></svg>